<?xml version="1.0" encoding="UTF-8" standalone="no"?>
<!-- Generator: Adobe Illustrator 23.1.1, SVG Export Plug-In . SVG Version: 6.00 Build 0)  -->

<svg
   xmlns:dc="http://purl.org/dc/elements/1.1/"
   xmlns:cc="http://creativecommons.org/ns#"
   xmlns:rdf="http://www.w3.org/1999/02/22-rdf-syntax-ns#"
   xmlns:svg="http://www.w3.org/2000/svg"
   xmlns="http://www.w3.org/2000/svg"
   xmlns:sodipodi="http://sodipodi.sourceforge.net/DTD/sodipodi-0.dtd"
   xmlns:inkscape="http://www.inkscape.org/namespaces/inkscape"
   version="1.1"
   id="Layer_1"
   x="0px"
   y="0px"
   viewBox="0 0 128 200.73785"
   xml:space="preserve"
   sodipodi:docname="Liten.svg"
   width="128"
   height="200.73785"
   inkscape:version="0.92.4 (5da689c313, 2019-01-14)"><metadata
   id="metadata93"><rdf:RDF><cc:Work
       rdf:about=""><dc:format>image/svg+xml</dc:format><dc:type
         rdf:resource="http://purl.org/dc/dcmitype/StillImage" /><dc:title></dc:title></cc:Work></rdf:RDF></metadata><defs
   id="defs91" /><sodipodi:namedview
   pagecolor="#ffffff"
   bordercolor="#666666"
   borderopacity="1"
   objecttolerance="10"
   gridtolerance="10"
   guidetolerance="10"
   inkscape:pageopacity="0"
   inkscape:pageshadow="2"
   inkscape:window-width="1920"
   inkscape:window-height="1021"
   id="namedview89"
   showgrid="false"
   inkscape:zoom="0.7643172"
   inkscape:cx="-12.722449"
   inkscape:cy="82.892271"
   inkscape:window-x="0"
   inkscape:window-y="0"
   inkscape:window-maximized="1"
   inkscape:current-layer="Layer_1" />
<path
   d="M 64,0 C 64,0 0,101.38446 0,136.73785 c 0,35.35339 28.64661,64 64,64 35.35339,0 64,-28.64661 64,-64 C 128,101.38446 64,0 64,0 Z m 41.91207,102.1038 c -0.0847,0.52892 -0.1481,1.05785 -0.25389,1.58678 -0.42313,2.20033 -1.62909,3.78711 -3.70247,4.69685 -1.79835,0.78282 -3.72364,0.93092 -5.64893,1.01555 -1.7772,0.0847 -3.57554,0.12694 -5.35273,0.25388 -0.8886,0.0634 -1.75603,0.23273 -2.51768,0.74049 -0.48661,0.31736 -0.76166,0.76166 -0.69819,1.3329 0.0634,0.52892 0.12695,1.079 0.2962,1.58678 0.76165,2.28495 1.92529,4.3795 3.06777,6.47404 1.94645,3.53323 3.93521,7.02414 5.86049,10.57852 1.65025,3.02545 3.13125,6.13553 4.21025,9.41487 0.65587,1.98876 1.1848,3.97752 1.1848,6.09323 0,1.54445 -0.80397,2.4119 -2.34843,2.58115 -0.50777,0.0423 -0.99439,0.10579 -1.481,0.16925 -6.64331,0 -13.26545,0 -19.90876,0 -0.12694,-0.0211 -0.25388,-0.0634 -0.38082,-0.0846 -0.48661,-0.10578 -0.99439,-0.16925 -1.43868,-0.35967 -0.97322,-0.40198 -1.65024,-1.16364 -2.17918,-2.03108 -1.29058,-2.05223 -2.53884,-4.12561 -3.82942,-6.17784 -1.12132,-1.79835 -2.2638,-3.5967 -3.42743,-5.37389 -0.48661,-0.71934 -1.05786,-1.39636 -1.84066,-1.84066 -0.35968,-0.21157 -0.7405,-0.25388 -1.07902,0.0211 -0.46545,0.35968 -0.99437,0.71934 -1.33289,1.1848 -1.16363,1.65025 -2.28495,3.32165 -3.36396,5.01421 -1.50215,2.36959 -2.94083,4.78149 -4.42182,7.15108 -0.71934,1.16364 -1.69256,2.07339 -3.11009,2.32727 -0.29619,0.0635 -0.61355,0.0847 -0.90974,0.12694 -6.601,0 -13.20199,0 -19.82414,0 -0.57123,-0.0634 -1.14247,-0.10578 -1.69256,-0.16925 -1.20595,-0.12694 -1.98876,-0.76165 -2.13686,-1.92529 -0.10578,-0.80397 -0.0635,-1.65025 0.0423,-2.47537 0.27503,-2.17918 0.97322,-4.23141 1.77719,-6.26249 1.39636,-3.53322 3.15239,-6.89718 4.99305,-10.21884 2.03108,-3.68132 4.08331,-7.36264 6.07207,-11.06512 0.7405,-1.35405 1.37521,-2.77157 1.62909,-4.31604 0.1481,-0.84627 -0.0847,-1.43867 -0.82513,-1.8195 -0.57124,-0.27504 -1.18479,-0.52892 -1.79834,-0.5924 -1.48099,-0.1481 -2.98314,-0.21156 -4.48529,-0.27503 -1.98876,-0.0847 -3.97753,-0.10579 -5.92397,-0.65587 -1.54446,-0.42315 -2.87735,-1.16364 -3.80827,-2.51768 -0.82511,-1.20596 -1.14247,-2.53885 -1.24826,-3.99868 -0.14809,-2.00992 0.48662,-3.7448 1.65025,-5.33158 1.1848,-1.58677 2.66579,-2.83503 4.29488,-3.93521 2.07339,-1.39636 4.27371,-2.53884 6.55868,-3.53321 3.59669,-1.58679 7.32032,-2.85621 11.06512,-4.06216 1.20595,-0.40198 2.4119,-0.84628 3.61785,-1.24826 0.33851,-0.10579 0.48661,-0.31735 0.50777,-0.69818 0.0634,-0.99438 0.1481,-1.98876 0.23273,-2.98314 0.16925,-2.11571 0.57124,-4.1891 1.33289,-6.17785 1.75603,-4.56992 5.12,-7.06645 9.96496,-7.51075 1.60794,-0.1481 3.23702,-0.10579 4.84496,0.23273 2.87735,0.5924 5.22578,1.98876 6.89719,4.42182 1.71372,2.45421 2.39074,5.2681 2.75041,8.16661 0.16925,1.29058 0.23273,2.60231 0.31736,3.91405 0.0211,0.31736 0.16925,0.50777 0.44429,0.61355 0.61355,0.23273 1.20595,0.46545 1.84066,0.67703 4.5276,1.48099 9.05521,2.91967 13.41355,4.90842 3.17356,1.43868 6.22018,3.08894 8.80133,5.47968 1.45983,1.35405 2.60232,2.91966 3.06777,4.90843 0.12694,0.50776 0.1481,1.0367 0.21157,1.56562 0.0211,0.12694 0.0211,0.25388 0.0211,0.40198 z"
   id="path2"
   inkscape:connector-curvature="0"
   style="stroke-width:2.11570239" />




</svg>