<?xml version="1.0" encoding="UTF-8" standalone="no"?>
<!-- Generator: Adobe Illustrator 23.1.1, SVG Export Plug-In . SVG Version: 6.00 Build 0)  -->

<svg
   xmlns:dc="http://purl.org/dc/elements/1.1/"
   xmlns:cc="http://creativecommons.org/ns#"
   xmlns:rdf="http://www.w3.org/1999/02/22-rdf-syntax-ns#"
   xmlns:svg="http://www.w3.org/2000/svg"
   xmlns="http://www.w3.org/2000/svg"
   xmlns:sodipodi="http://sodipodi.sourceforge.net/DTD/sodipodi-0.dtd"
   xmlns:inkscape="http://www.inkscape.org/namespaces/inkscape"
   version="1.1"
   id="Layer_1"
   x="0px"
   y="0px"
   viewBox="0 0 256 401.43603"
   xml:space="preserve"
   sodipodi:docname="Medium.svg"
   width="256"
   height="401.43604"
   inkscape:version="0.92.4 (5da689c313, 2019-01-14)"><metadata
   id="metadata93"><rdf:RDF><cc:Work
       rdf:about=""><dc:format>image/svg+xml</dc:format><dc:type
         rdf:resource="http://purl.org/dc/dcmitype/StillImage" /><dc:title></dc:title></cc:Work></rdf:RDF></metadata><defs
   id="defs91" /><sodipodi:namedview
   pagecolor="#ffffff"
   bordercolor="#666666"
   borderopacity="1"
   objecttolerance="10"
   gridtolerance="10"
   guidetolerance="10"
   inkscape:pageopacity="0"
   inkscape:pageshadow="2"
   inkscape:window-width="1920"
   inkscape:window-height="1021"
   id="namedview89"
   showgrid="false"
   inkscape:zoom="0.7643172"
   inkscape:cx="10.522632"
   inkscape:cy="209.62204"
   inkscape:window-x="0"
   inkscape:window-y="0"
   inkscape:window-maximized="1"
   inkscape:current-layer="Layer_1" />


<g
   id="g58"
   transform="matrix(1.509612,0,0,1.509612,-631.04801,-68.702442)">
	<path
   d="m 506.28,265.22 c 0.87,-0.26 1.52,-0.69 1.96,-1.29 0.44,-0.6 0.66,-1.35 0.66,-2.25 0,-0.86 -0.21,-1.61 -0.62,-2.26 -0.41,-0.65 -1,-1.1 -1.76,-1.34 -0.76,-0.24 -2.07,-0.36 -3.93,-0.36 h -5.16 v 7.8 h 5.58 c 1.53,0 2.61,-0.1 3.27,-0.3 z"
   id="path48"
   inkscape:connector-curvature="0" />
	<path
   d="m 475.01,265.22 c 0.87,-0.26 1.52,-0.69 1.96,-1.29 0.44,-0.6 0.66,-1.35 0.66,-2.25 0,-0.86 -0.21,-1.61 -0.62,-2.26 -0.41,-0.65 -1,-1.1 -1.76,-1.34 -0.76,-0.24 -2.07,-0.36 -3.93,-0.36 h -5.16 v 7.8 h 5.58 c 1.53,0 2.61,-0.1 3.27,-0.3 z"
   id="path50"
   inkscape:connector-curvature="0" />
	<path
   d="m 475.92,269 c -0.87,-0.29 -2.13,-0.43 -3.78,-0.43 h -5.97 v 8.88 h 6.43 c 1.1,0 1.88,-0.04 2.33,-0.12 0.79,-0.14 1.44,-0.38 1.97,-0.7 0.53,-0.33 0.96,-0.81 1.3,-1.44 0.34,-0.63 0.51,-1.35 0.51,-2.17 0,-0.96 -0.25,-1.8 -0.74,-2.51 -0.49,-0.73 -1.18,-1.22 -2.05,-1.51 z"
   id="path52"
   inkscape:connector-curvature="0" />
	<path
   d="m 507.19,269 c -0.87,-0.29 -2.13,-0.43 -3.78,-0.43 h -5.97 v 8.88 h 6.43 c 1.1,0 1.88,-0.04 2.33,-0.12 0.79,-0.14 1.44,-0.38 1.97,-0.7 0.53,-0.33 0.96,-0.81 1.3,-1.44 0.34,-0.63 0.51,-1.35 0.51,-2.17 0,-0.96 -0.25,-1.8 -0.74,-2.51 -0.5,-0.73 -1.18,-1.22 -2.05,-1.51 z"
   id="path54"
   inkscape:connector-curvature="0" />
	<path
   d="m 502.81,45.51 c 0,0 -84.79,134.31 -84.79,181.13 0,46.83 37.96,84.79 84.79,84.79 46.83,0 84.79,-37.96 84.79,-84.79 C 587.59,179.81 502.81,45.51 502.81,45.51 Z m -21.33,230.87 c -0.51,1.04 -1.14,1.84 -1.89,2.4 -0.75,0.56 -1.69,0.99 -2.83,1.28 -1.13,0.29 -2.52,0.43 -4.17,0.43 h -9.84 v -25.82 h 9.69 c 1.97,0 3.55,0.26 4.75,0.78 1.19,0.52 2.12,1.33 2.8,2.41 0.68,1.08 1.01,2.22 1.01,3.41 0,1.1 -0.3,2.14 -0.9,3.12 -0.6,0.98 -1.5,1.76 -2.71,2.36 1.56,0.46 2.76,1.24 3.6,2.34 0.84,1.1 1.26,2.41 1.26,3.91 0,1.21 -0.26,2.34 -0.77,3.38 z m 31.27,0 c -0.51,1.04 -1.14,1.84 -1.89,2.4 -0.75,0.56 -1.69,0.99 -2.83,1.28 -1.13,0.29 -2.52,0.43 -4.17,0.43 h -9.84 v -25.82 h 9.69 c 1.97,0 3.55,0.26 4.75,0.78 1.19,0.52 2.12,1.33 2.8,2.41 0.68,1.08 1.01,2.22 1.01,3.41 0,1.1 -0.3,2.14 -0.9,3.12 -0.6,0.98 -1.5,1.76 -2.71,2.36 1.56,0.46 2.76,1.24 3.6,2.34 0.84,1.1 1.26,2.41 1.26,3.91 0,1.21 -0.26,2.34 -0.77,3.38 z m 29.38,4.11 -9.19,-13.07 -4.23,4.12 v 8.95 h -3.42 v -25.82 h 3.42 v 12.8 l 12.82,-12.8 h 4.63 l -10.83,10.46 11.31,15.36 z m 16.83,-97.71 c -0.11,0.71 -0.19,1.43 -0.33,2.13 -0.58,2.94 -2.18,5.09 -4.95,6.29 -2.41,1.05 -4.98,1.24 -7.56,1.36 -2.39,0.11 -4.78,0.17 -7.17,0.33 -1.18,0.08 -2.35,0.32 -3.37,1 -0.64,0.43 -1.03,1.01 -0.95,1.79 0.07,0.72 0.18,1.45 0.41,2.13 1.01,3.06 2.57,5.87 4.12,8.68 2.6,4.73 5.28,9.42 7.85,14.17 2.2,4.06 4.19,8.22 5.65,12.62 0.88,2.65 1.6,5.34 1.59,8.16 0,2.08 -1.06,3.23 -3.15,3.45 -0.67,0.07 -1.33,0.15 -2,0.22 -8.89,0 -17.78,0 -26.66,0 -0.17,-0.04 -0.34,-0.07 -0.52,-0.11 -0.65,-0.15 -1.33,-0.22 -1.94,-0.47 -1.29,-0.54 -2.2,-1.56 -2.93,-2.71 -1.74,-2.75 -3.42,-5.53 -5.14,-8.28 -1.51,-2.41 -3.03,-4.82 -4.61,-7.19 -0.64,-0.97 -1.41,-1.86 -2.46,-2.45 -0.49,-0.28 -1,-0.33 -1.44,0.01 -0.63,0.49 -1.33,0.96 -1.78,1.59 -1.56,2.2 -3.07,4.44 -4.51,6.72 -2.01,3.17 -3.93,6.41 -5.93,9.59 -0.98,1.55 -2.27,2.77 -4.16,3.13 -0.4,0.08 -0.81,0.12 -1.22,0.17 -8.85,0 -17.7,0 -26.55,0 -0.76,-0.08 -1.52,-0.15 -2.28,-0.23 -1.6,-0.16 -2.66,-1.02 -2.86,-2.59 -0.14,-1.09 -0.08,-2.22 0.06,-3.31 0.38,-2.91 1.31,-5.67 2.38,-8.39 1.88,-4.74 4.24,-9.25 6.7,-13.71 2.72,-4.94 5.46,-9.86 8.13,-14.83 0.98,-1.82 1.85,-3.72 2.2,-5.79 0.19,-1.12 -0.1,-1.94 -1.1,-2.44 -0.75,-0.38 -1.59,-0.71 -2.41,-0.8 -2,-0.21 -4.01,-0.28 -6.01,-0.38 -2.67,-0.12 -5.34,-0.15 -7.94,-0.88 -2.06,-0.58 -3.85,-1.57 -5.09,-3.38 -1.11,-1.61 -1.53,-3.42 -1.67,-5.34 -0.19,-2.69 0.64,-5.02 2.21,-7.14 1.58,-2.13 3.58,-3.79 5.76,-5.26 2.77,-1.87 5.74,-3.4 8.8,-4.74 4.83,-2.12 9.81,-3.83 14.82,-5.45 1.63,-0.53 3.23,-1.12 4.85,-1.69 0.44,-0.15 0.66,-0.44 0.69,-0.93 0.08,-1.33 0.2,-2.66 0.3,-3.99 0.23,-2.83 0.76,-5.61 1.78,-8.27 2.35,-6.12 6.85,-9.46 13.35,-10.06 2.16,-0.2 4.34,-0.14 6.49,0.3 3.85,0.79 6.99,2.67 9.25,5.92 2.29,3.28 3.2,7.05 3.68,10.94 0.21,1.74 0.31,3.49 0.43,5.24 0.03,0.43 0.24,0.68 0.61,0.82 0.82,0.31 1.63,0.63 2.46,0.91 6.06,1.98 12.14,3.92 17.96,6.57 4.25,1.94 8.35,4.13 11.79,7.35 1.95,1.82 3.5,3.92 4.12,6.58 0.16,0.68 0.19,1.4 0.28,2.1 -0.03,0.18 -0.03,0.36 -0.03,0.54 z"
   id="path56"
   inkscape:connector-curvature="0" />
</g>


</svg>