<?xml version="1.0" encoding="UTF-8" standalone="no"?>
<!-- Generator: Adobe Illustrator 23.1.1, SVG Export Plug-In . SVG Version: 6.00 Build 0)  -->

<svg
   xmlns:dc="http://purl.org/dc/elements/1.1/"
   xmlns:cc="http://creativecommons.org/ns#"
   xmlns:rdf="http://www.w3.org/1999/02/22-rdf-syntax-ns#"
   xmlns:svg="http://www.w3.org/2000/svg"
   xmlns="http://www.w3.org/2000/svg"
   xmlns:sodipodi="http://sodipodi.sourceforge.net/DTD/sodipodi-0.dtd"
   xmlns:inkscape="http://www.inkscape.org/namespaces/inkscape"
   version="1.1"
   id="Layer_1"
   x="0px"
   y="0px"
   viewBox="0 0 2048 653.86534"
   xml:space="preserve"
   sodipodi:docname="Bred.svg"
   width="2048"
   height="653.86536"
   inkscape:version="0.92.4 (5da689c313, 2019-01-14)"><metadata
   id="metadata93"><rdf:RDF><cc:Work
       rdf:about=""><dc:format>image/svg+xml</dc:format><dc:type
         rdf:resource="http://purl.org/dc/dcmitype/StillImage" /><dc:title></dc:title></cc:Work></rdf:RDF></metadata><defs
   id="defs91" /><sodipodi:namedview
   pagecolor="#ffffff"
   bordercolor="#666666"
   borderopacity="1"
   objecttolerance="10"
   gridtolerance="10"
   guidetolerance="10"
   inkscape:pageopacity="0"
   inkscape:pageshadow="2"
   inkscape:window-width="1920"
   inkscape:window-height="1021"
   id="namedview89"
   showgrid="false"
   inkscape:zoom="0.3821586"
   inkscape:cx="903.97095"
   inkscape:cy="267.09484"
   inkscape:window-x="0"
   inkscape:window-y="0"
   inkscape:window-maximized="1"
   inkscape:current-layer="Layer_1" />

<g
   id="g46"
   transform="matrix(5.008927,0,0,5.008927,-372.11319,-3460.0667)">
	<path
   d="m 179.18,763.91 v -42.38 h 15.9 c 3.24,0 5.83,0.43 7.79,1.29 1.96,0.86 3.49,2.18 4.6,3.96 1.11,1.78 1.66,3.65 1.66,5.59 0,1.81 -0.49,3.52 -1.47,5.12 -0.98,1.6 -2.47,2.89 -4.45,3.87 2.56,0.75 4.53,2.03 5.91,3.84 1.38,1.81 2.07,3.95 2.07,6.42 0,1.99 -0.42,3.83 -1.26,5.54 -0.84,1.71 -1.87,3.02 -3.11,3.95 -1.23,0.92 -2.78,1.62 -4.64,2.1 -1.86,0.47 -4.14,0.71 -6.84,0.71 h -16.16 z m 5.61,-24.57 h 9.17 c 2.49,0 4.27,-0.16 5.35,-0.49 1.43,-0.42 2.5,-1.13 3.22,-2.11 0.72,-0.98 1.08,-2.22 1.08,-3.7 0,-1.41 -0.34,-2.65 -1.01,-3.71 -0.67,-1.07 -1.64,-1.8 -2.89,-2.2 -1.25,-0.39 -3.4,-0.59 -6.45,-0.59 h -8.47 z m 0,19.57 h 10.55 c 1.81,0 3.08,-0.07 3.82,-0.2 1.29,-0.23 2.37,-0.62 3.24,-1.16 0.87,-0.54 1.58,-1.32 2.14,-2.36 0.56,-1.04 0.84,-2.22 0.84,-3.57 0,-1.58 -0.41,-2.95 -1.21,-4.12 -0.81,-1.17 -1.93,-1.98 -3.37,-2.46 -1.44,-0.47 -3.5,-0.71 -6.2,-0.71 h -9.8 v 14.58 z"
   id="path4"
   inkscape:connector-curvature="0" />
	<path
   d="m 230.86,763.91 v -42.38 h 30.64 v 5 h -25.04 v 12.98 h 23.45 v 4.97 h -23.45 v 14.43 h 26.02 v 5 z"
   id="path6"
   inkscape:connector-curvature="0" />
	<path
   d="m 282.16,763.91 v -42.38 h 18.79 c 3.78,0 6.65,0.38 8.62,1.14 1.97,0.76 3.54,2.11 4.71,4.03 1.17,1.93 1.76,4.06 1.76,6.39 0,3.01 -0.97,5.54 -2.92,7.6 -1.95,2.06 -4.95,3.37 -9.02,3.93 1.48,0.71 2.61,1.42 3.38,2.11 1.64,1.5 3.19,3.38 4.65,5.64 l 7.37,11.54 h -7.05 l -5.61,-8.82 c -1.64,-2.54 -2.99,-4.49 -4.05,-5.84 -1.06,-1.35 -2.01,-2.29 -2.85,-2.83 -0.84,-0.54 -1.69,-0.92 -2.56,-1.13 -0.64,-0.13 -1.68,-0.2 -3.12,-0.2 h -6.5 v 18.82 z m 5.61,-23.68 h 12.05 c 2.56,0 4.57,-0.26 6.01,-0.79 1.45,-0.53 2.54,-1.38 3.3,-2.54 0.75,-1.17 1.13,-2.43 1.13,-3.8 0,-2 -0.73,-3.65 -2.18,-4.94 -1.46,-1.29 -3.75,-1.94 -6.89,-1.94 h -13.41 v 14.01 z"
   id="path8"
   inkscape:connector-curvature="0" />
	<path
   d="m 356.5,747.29 v -4.97 l 17.95,-0.03 v 15.73 c -2.76,2.2 -5.6,3.85 -8.53,4.96 -2.93,1.11 -5.94,1.66 -9.02,1.66 -4.16,0 -7.95,-0.89 -11.35,-2.67 -3.4,-1.78 -5.97,-4.36 -7.7,-7.73 -1.73,-3.37 -2.6,-7.14 -2.6,-11.3 0,-4.12 0.86,-7.97 2.59,-11.55 1.73,-3.58 4.21,-6.23 7.44,-7.96 3.24,-1.73 6.97,-2.6 11.19,-2.6 3.06,0 5.83,0.5 8.31,1.49 2.48,0.99 4.42,2.38 5.83,4.15 1.41,1.77 2.48,4.09 3.21,6.94 l -5.06,1.39 c -0.64,-2.16 -1.43,-3.85 -2.37,-5.09 -0.94,-1.24 -2.29,-2.22 -4.05,-2.96 -1.75,-0.74 -3.7,-1.11 -5.84,-1.11 -2.56,0 -4.78,0.39 -6.65,1.17 -1.87,0.78 -3.38,1.81 -4.52,3.08 -1.15,1.27 -2.04,2.67 -2.67,4.19 -1.08,2.62 -1.62,5.46 -1.62,8.53 0,3.78 0.65,6.94 1.95,9.48 1.3,2.54 3.2,4.43 5.68,5.67 2.49,1.23 5.13,1.85 7.92,1.85 2.43,0 4.8,-0.47 7.11,-1.4 2.31,-0.93 4.07,-1.93 5.26,-2.99 v -7.89 H 356.5 Z"
   id="path10"
   inkscape:connector-curvature="0" />
	<path
   d="m 394.68,763.91 v -42.38 h 30.64 v 5 h -25.04 v 12.98 h 23.45 v 4.97 h -23.45 v 14.43 h 26.02 v 5 z"
   id="path12"
   inkscape:connector-curvature="0" />
	<path
   d="m 445.84,763.91 v -42.38 h 5.75 l 22.26,33.27 v -33.27 h 5.38 v 42.38 h -5.75 l -22.26,-33.3 v 33.3 z"
   id="path14"
   inkscape:connector-curvature="0" />
	<path
   d="m 176.77,776.65 h 7.53 c 1.49,0 2.6,0.06 3.33,0.19 0.73,0.13 1.39,0.38 1.97,0.78 0.58,0.39 1.06,0.92 1.45,1.57 0.38,0.66 0.58,1.39 0.58,2.2 0,0.88 -0.24,1.69 -0.71,2.43 -0.48,0.74 -1.12,1.29 -1.93,1.66 1.15,0.33 2.03,0.9 2.65,1.71 0.62,0.8 0.92,1.75 0.92,2.84 0,0.86 -0.2,1.69 -0.6,2.5 -0.4,0.81 -0.94,1.46 -1.63,1.94 -0.69,0.48 -1.54,0.78 -2.55,0.89 -0.63,0.07 -2.16,0.11 -4.59,0.13 h -6.41 v -18.84 z m 3.8,3.14 v 4.36 h 2.49 c 1.48,0 2.4,-0.02 2.76,-0.06 0.65,-0.08 1.16,-0.3 1.54,-0.67 0.37,-0.37 0.56,-0.86 0.56,-1.47 0,-0.58 -0.16,-1.06 -0.48,-1.42 -0.32,-0.36 -0.8,-0.58 -1.43,-0.66 -0.38,-0.04 -1.46,-0.06 -3.25,-0.06 h -2.19 z m 0,7.49 v 5.04 h 3.52 c 1.37,0 2.24,-0.04 2.61,-0.12 0.57,-0.1 1.03,-0.35 1.38,-0.75 0.35,-0.4 0.53,-0.93 0.53,-1.6 0,-0.57 -0.14,-1.04 -0.41,-1.44 -0.27,-0.39 -0.67,-0.68 -1.19,-0.86 -0.52,-0.18 -1.64,-0.27 -3.37,-0.27 z"
   id="path16"
   inkscape:connector-curvature="0" />
	<path
   d="m 199.72,795.49 v -18.84 h 8 c 2.01,0 3.48,0.17 4.39,0.51 0.91,0.34 1.64,0.94 2.19,1.8 0.55,0.87 0.82,1.85 0.82,2.97 0,1.41 -0.42,2.58 -1.25,3.5 -0.83,0.92 -2.07,1.5 -3.73,1.74 0.82,0.48 1.5,1.01 2.04,1.58 0.54,0.57 1.26,1.59 2.17,3.06 l 2.3,3.67 h -4.55 l -2.75,-4.1 c -0.98,-1.46 -1.64,-2.39 -2,-2.77 -0.36,-0.38 -0.74,-0.64 -1.14,-0.78 -0.4,-0.14 -1.04,-0.21 -1.92,-0.21 h -0.77 v 7.86 h -3.8 z m 3.8,-10.87 h 2.81 c 1.83,0 2.96,-0.08 3.42,-0.23 0.45,-0.15 0.81,-0.42 1.07,-0.8 0.26,-0.38 0.39,-0.85 0.39,-1.41 0,-0.63 -0.17,-1.15 -0.51,-1.54 -0.34,-0.39 -0.82,-0.64 -1.43,-0.74 -0.31,-0.04 -1.23,-0.06 -2.78,-0.06 h -2.97 z"
   id="path18"
   inkscape:connector-curvature="0" />
	<path
   d="m 222.66,795.49 v -18.84 h 13.97 v 3.19 h -10.16 v 4.18 h 9.46 v 3.17 h -9.46 v 5.13 h 10.52 v 3.17 z"
   id="path20"
   inkscape:connector-curvature="0" />
	<path
   d="m 248.39,795.49 v -15.65 h -5.59 v -3.19 h 14.97 v 3.19 h -5.58 v 15.65 z"
   id="path22"
   inkscape:connector-curvature="0" />
	<path
   d="m 268.41,795.49 v -15.65 h -5.59 v -3.19 h 14.97 v 3.19 h -5.58 v 15.65 z"
   id="path24"
   inkscape:connector-curvature="0" />
	<path
   d="m 283.23,789.36 3.7,-0.36 c 0.22,1.24 0.67,2.15 1.36,2.74 0.68,0.58 1.6,0.87 2.76,0.87 1.22,0 2.15,-0.26 2.77,-0.78 0.62,-0.52 0.93,-1.12 0.93,-1.82 0,-0.45 -0.13,-0.82 -0.39,-1.14 -0.26,-0.31 -0.72,-0.58 -1.37,-0.82 -0.45,-0.15 -1.46,-0.43 -3.05,-0.82 -2.04,-0.5 -3.47,-1.13 -4.29,-1.86 -1.16,-1.04 -1.73,-2.3 -1.73,-3.79 0,-0.96 0.27,-1.86 0.82,-2.69 0.55,-0.83 1.33,-1.47 2.35,-1.91 1.02,-0.44 2.26,-0.66 3.71,-0.66 2.36,0 4.14,0.52 5.34,1.55 1.19,1.04 1.82,2.42 1.88,4.15 l -3.8,0.17 c -0.16,-0.97 -0.51,-1.66 -1.05,-2.09 -0.54,-0.43 -1.34,-0.64 -2.41,-0.64 -1.1,0 -1.97,0.23 -2.59,0.68 -0.4,0.29 -0.6,0.68 -0.6,1.17 0,0.45 0.19,0.83 0.57,1.14 0.48,0.4 1.64,0.82 3.5,1.26 1.85,0.44 3.22,0.89 4.1,1.36 0.89,0.47 1.58,1.1 2.08,1.91 0.5,0.81 0.75,1.81 0.75,3 0,1.08 -0.3,2.09 -0.9,3.03 -0.6,0.94 -1.45,1.64 -2.54,2.1 -1.1,0.46 -2.46,0.69 -4.1,0.69 -2.38,0 -4.21,-0.55 -5.49,-1.65 -1.3,-1.08 -2.06,-2.69 -2.31,-4.79 z"
   id="path26"
   inkscape:connector-curvature="0" />
	<path
   d="m 305.69,795.49 v -18.84 h 6.1 c 2.31,0 3.82,0.09 4.52,0.28 1.08,0.28 1.98,0.9 2.71,1.84 0.73,0.95 1.09,2.17 1.09,3.67 0,1.16 -0.21,2.13 -0.63,2.92 -0.42,0.79 -0.95,1.41 -1.6,1.86 -0.65,0.45 -1.3,0.75 -1.97,0.89 -0.91,0.18 -2.22,0.27 -3.94,0.27 h -2.48 v 7.11 z m 3.81,-15.65 v 5.34 h 2.08 c 1.5,0 2.5,-0.1 3.01,-0.29 0.5,-0.2 0.9,-0.51 1.19,-0.93 0.29,-0.42 0.43,-0.91 0.43,-1.46 0,-0.68 -0.2,-1.25 -0.6,-1.7 -0.4,-0.45 -0.91,-0.72 -1.53,-0.83 -0.45,-0.09 -1.37,-0.13 -2.74,-0.13 z"
   id="path28"
   inkscape:connector-curvature="0" />
	<path
   d="m 327.07,795.49 v -18.84 h 3.8 v 18.84 z"
   id="path30"
   inkscape:connector-curvature="0" />
	<path
   d="M 338.55,795.49 V 776.8 h 3.8 v 15.51 h 9.46 v 3.17 h -13.26 z"
   id="path32"
   inkscape:connector-curvature="0" />
	<path
   d="M 358.57,795.49 V 776.8 h 3.8 v 15.51 h 9.46 v 3.17 h -13.26 z"
   id="path34"
   inkscape:connector-curvature="0" />
	<path
   d="m 378.54,795.49 v -18.84 h 3.8 v 8.36 l 7.68,-8.36 h 5.11 l -7.09,7.34 7.48,11.5 h -4.92 l -5.18,-8.84 -3.08,3.15 v 5.69 z"
   id="path36"
   inkscape:connector-curvature="0" />
	<path
   d="M 401.54,795.49 V 776.8 h 3.8 v 15.51 h 9.46 v 3.17 h -13.26 z"
   id="path38"
   inkscape:connector-curvature="0" />
	<path
   d="m 421.43,776.65 h 3.8 v 10.2 c 0,1.62 0.05,2.67 0.14,3.15 0.16,0.77 0.55,1.39 1.16,1.86 0.61,0.47 1.45,0.7 2.51,0.7 1.08,0 1.89,-0.22 2.44,-0.66 0.55,-0.44 0.88,-0.98 0.99,-1.63 0.11,-0.65 0.17,-1.71 0.17,-3.2 v -10.42 h 3.8 v 9.89 c 0,2.26 -0.1,3.86 -0.31,4.79 -0.21,0.93 -0.58,1.72 -1.14,2.36 -0.55,0.64 -1.29,1.15 -2.22,1.54 -0.93,0.38 -2.13,0.57 -3.62,0.57 -1.8,0 -3.16,-0.21 -4.09,-0.62 -0.93,-0.42 -1.66,-0.96 -2.2,-1.62 -0.54,-0.66 -0.9,-1.36 -1.07,-2.09 -0.25,-1.08 -0.37,-2.67 -0.37,-4.78 v -10.04 z"
   id="path40"
   inkscape:connector-curvature="0" />
	<path
   d="m 444.42,776.65 h 7.53 c 1.49,0 2.6,0.06 3.33,0.19 0.73,0.13 1.39,0.38 1.97,0.78 0.58,0.39 1.06,0.92 1.45,1.57 0.38,0.66 0.58,1.39 0.58,2.2 0,0.88 -0.24,1.69 -0.71,2.43 -0.48,0.74 -1.12,1.29 -1.93,1.66 1.15,0.33 2.03,0.9 2.65,1.71 0.62,0.8 0.92,1.75 0.92,2.84 0,0.86 -0.2,1.69 -0.6,2.5 -0.4,0.81 -0.94,1.46 -1.63,1.94 -0.69,0.48 -1.54,0.78 -2.55,0.89 -0.63,0.07 -2.16,0.11 -4.59,0.13 h -6.41 v -18.84 z m 3.8,3.14 v 4.36 h 2.49 c 1.48,0 2.4,-0.02 2.76,-0.06 0.65,-0.08 1.16,-0.3 1.54,-0.67 0.37,-0.37 0.56,-0.86 0.56,-1.47 0,-0.58 -0.16,-1.06 -0.48,-1.42 -0.32,-0.36 -0.8,-0.58 -1.43,-0.66 -0.38,-0.04 -1.46,-0.06 -3.25,-0.06 h -2.19 z m 0,7.49 v 5.04 h 3.52 c 1.37,0 2.24,-0.04 2.61,-0.12 0.57,-0.1 1.03,-0.35 1.38,-0.75 0.35,-0.4 0.53,-0.93 0.53,-1.6 0,-0.57 -0.14,-1.04 -0.41,-1.44 -0.27,-0.39 -0.67,-0.68 -1.19,-0.86 -0.52,-0.18 -1.64,-0.27 -3.37,-0.27 z"
   id="path42"
   inkscape:connector-curvature="0" />
	<path
   d="m 467.37,776.65 h 7.53 c 1.49,0 2.6,0.06 3.33,0.19 0.73,0.13 1.39,0.38 1.97,0.78 0.58,0.39 1.06,0.92 1.45,1.57 0.38,0.66 0.58,1.39 0.58,2.2 0,0.88 -0.24,1.69 -0.71,2.43 -0.48,0.74 -1.12,1.29 -1.93,1.66 1.15,0.33 2.03,0.9 2.65,1.71 0.62,0.8 0.92,1.75 0.92,2.84 0,0.86 -0.2,1.69 -0.6,2.5 -0.4,0.81 -0.94,1.46 -1.63,1.94 -0.69,0.48 -1.54,0.78 -2.55,0.89 -0.63,0.07 -2.16,0.11 -4.59,0.13 h -6.41 v -18.84 z m 3.8,3.14 v 4.36 h 2.49 c 1.48,0 2.4,-0.02 2.76,-0.06 0.65,-0.08 1.16,-0.3 1.54,-0.67 0.37,-0.37 0.56,-0.86 0.56,-1.47 0,-0.58 -0.16,-1.06 -0.48,-1.42 -0.32,-0.36 -0.8,-0.58 -1.43,-0.66 -0.38,-0.04 -1.46,-0.06 -3.25,-0.06 h -2.19 z m 0,7.49 v 5.04 h 3.52 c 1.37,0 2.24,-0.04 2.61,-0.12 0.57,-0.1 1.03,-0.35 1.38,-0.75 0.35,-0.4 0.53,-0.93 0.53,-1.6 0,-0.57 -0.14,-1.04 -0.41,-1.44 -0.27,-0.39 -0.67,-0.68 -1.19,-0.86 -0.52,-0.18 -1.64,-0.27 -3.37,-0.27 z"
   id="path44"
   inkscape:connector-curvature="0" />
</g>


<path
   d="M 208.47154,0 C 208.47154,0 0,330.23856 0,445.3938 c 0,115.15523 93.31631,208.47154 208.47154,208.47154 115.15524,0 208.47155,-93.31631 208.47155,-208.47154 C 416.94309,330.23856 208.47154,0 208.47154,0 Z m 136.49327,332.59276 c -0.25045,1.75312 -0.45081,3.45616 -0.80143,5.15919 -1.4025,7.16277 -5.30947,12.37205 -12.02143,15.27723 -5.86044,2.55455 -12.1216,3.00536 -18.38276,3.30589 -5.81036,0.25045 -11.62071,0.40072 -17.43107,0.80143 -2.85508,0.20036 -5.71017,0.75134 -8.21464,2.45438 -1.55276,1.05187 -2.50446,2.45437 -2.3041,4.35776 0.20035,1.75313 0.4508,3.50625 1.00178,5.20929 2.45438,7.41321 6.26116,14.27544 10.01786,21.08758 6.31124,11.47044 12.82285,22.8908 19.08401,34.46142 5.35955,9.86758 10.16812,19.98562 13.72446,30.65463 2.15384,6.46152 3.90696,12.97312 3.85687,19.83535 0,5.05902 -2.60464,7.86402 -7.66366,8.36491 -1.60285,0.15027 -3.2558,0.35063 -4.85866,0.55098 -21.58847,0 -43.22704,0 -64.81551,0 -0.40072,-0.10018 -0.85152,-0.20035 -1.25223,-0.30053 -1.55277,-0.35063 -3.25581,-0.55099 -4.70839,-1.15206 -3.15563,-1.30232 -5.35956,-3.80678 -7.11268,-6.61178 -4.2075,-6.66187 -8.31482,-13.42392 -12.52232,-20.13589 -3.65651,-5.86044 -7.36312,-11.72089 -11.16991,-17.48115 -1.55276,-2.3542 -3.45616,-4.50804 -6.01071,-5.96063 -1.20214,-0.65116 -2.40428,-0.80142 -3.50625,0.0501 -1.55276,1.20215 -3.2558,2.30411 -4.30767,3.85688 -3.80679,5.35955 -7.46331,10.81928 -10.96955,16.3291 -4.90875,7.71375 -9.56706,15.57776 -14.42571,23.29151 -2.3542,3.7567 -5.50982,6.71196 -10.11804,7.61357 -1.00178,0.20036 -1.95348,0.30054 -2.95526,0.40071 -21.53839,0 -43.02669,0 -64.56507,0 -1.85331,-0.20035 -3.70661,-0.35062 -5.55991,-0.55098 -3.90697,-0.40071 -6.46152,-2.45437 -6.96241,-6.31125 -0.35063,-2.65473 -0.20036,-5.40964 0.15027,-8.06437 0.9016,-7.06259 3.20571,-13.77455 5.81035,-20.38633 4.55813,-11.52053 10.31839,-22.49008 16.27902,-33.30937 6.61178,-12.02142 13.27365,-23.99276 19.78526,-36.06427 2.40428,-4.40786 4.50803,-9.01607 5.35955,-14.07509 0.4508,-2.70482 -0.25045,-4.70839 -2.65473,-5.91053 -1.80322,-0.90161 -3.85688,-1.75312 -5.86045,-1.95348 -4.85866,-0.50089 -9.71732,-0.70125 -14.62606,-0.90161 -6.46152,-0.30053 -12.97313,-0.35062 -19.28437,-2.15384 -5.00893,-1.4025 -9.3667,-3.80678 -12.37205,-8.21464 -2.70482,-3.90696 -3.70661,-8.31482 -4.05723,-12.97312 -0.45081,-6.5116 1.55276,-12.17169 5.35955,-17.33089 3.80678,-5.15919 8.71553,-9.21642 13.9749,-12.77276 6.76206,-4.55812 13.92482,-8.26473 21.38812,-11.52053 11.72089,-5.1592 23.8425,-9.31661 36.01419,-13.27366 3.95705,-1.25223 7.86401,-2.70482 11.77098,-4.10732 1.05187,-0.35062 1.60285,-1.05187 1.65294,-2.25402 0.20036,-3.2558 0.5009,-6.46151 0.75134,-9.66723 0.55098,-6.91231 1.8533,-13.62428 4.30768,-20.08579 5.71018,-14.87652 16.67973,-22.99098 32.45785,-24.44357 5.25937,-0.50089 10.51874,-0.35062 15.77812,0.75134 9.36669,1.90339 16.98026,6.51161 22.49008,14.37562 5.55991,7.9642 7.76384,17.13053 8.91589,26.59741 0.50089,4.20749 0.75134,8.46508 1.05187,12.72267 0.0501,1.05187 0.60108,1.65295 1.45259,2.00357 2.00357,0.75134 3.95705,1.55277 5.96063,2.20393 14.72624,4.80857 29.50258,9.51696 43.67784,15.97848 10.31839,4.70839 20.28615,10.01785 28.65106,17.88187 4.70839,4.45794 8.51518,9.51696 10.01786,15.97847 0.40071,1.65295 0.4508,3.40607 0.70125,5.10911 0.0501,0.40071 0.0501,0.85152 0.0501,1.30232 z"
   id="path86"
   inkscape:connector-curvature="0"
   style="stroke-width:5.00892687" />
</svg>