<?xml version="1.0" encoding="utf-8"?>
<!-- Generator: Adobe Illustrator 23.1.1, SVG Export Plug-In . SVG Version: 6.00 Build 0)  -->
<svg version="1.1" id="Layer_1" xmlns="http://www.w3.org/2000/svg" xmlns:xlink="http://www.w3.org/1999/xlink" x="0px" y="0px"
	 viewBox="0 0 633.36 873.34" style="enable-background:new 0 0 633.36 873.34;" xml:space="preserve">
<path d="M503.57,365.2c0,0-30.25,47.92-30.25,64.63s13.54,30.25,30.25,30.25c16.71,0,30.25-13.54,30.25-30.25
	S503.57,365.2,503.57,365.2z M523.38,413.46c-0.04,0.25-0.07,0.5-0.12,0.75c-0.2,1.04-0.77,1.79-1.75,2.22
	c-0.85,0.37-1.76,0.44-2.67,0.48c-0.84,0.04-1.69,0.06-2.53,0.12c-0.42,0.03-0.83,0.11-1.19,0.35c-0.23,0.15-0.36,0.36-0.33,0.63
	c0.03,0.25,0.06,0.51,0.14,0.75c0.36,1.08,0.91,2.07,1.45,3.06c0.92,1.67,1.86,3.32,2.77,5c0.78,1.43,1.48,2.9,1.99,4.45
	c0.31,0.94,0.56,1.88,0.56,2.88c0,0.73-0.38,1.14-1.11,1.22c-0.24,0.02-0.47,0.05-0.7,0.08c-3.14,0-6.27,0-9.41,0
	c-0.06-0.01-0.12-0.03-0.18-0.04c-0.23-0.05-0.47-0.08-0.68-0.17c-0.46-0.19-0.78-0.55-1.03-0.96c-0.61-0.97-1.2-1.95-1.81-2.92
	c-0.53-0.85-1.07-1.7-1.62-2.54c-0.23-0.34-0.5-0.66-0.87-0.87c-0.17-0.1-0.35-0.12-0.51,0.01c-0.22,0.17-0.47,0.34-0.63,0.56
	c-0.55,0.78-1.08,1.57-1.59,2.37c-0.71,1.12-1.39,2.26-2.09,3.38c-0.34,0.55-0.8,0.98-1.47,1.1c-0.14,0.03-0.29,0.04-0.43,0.06
	c-3.12,0-6.24,0-9.37,0c-0.27-0.03-0.54-0.05-0.8-0.08c-0.57-0.06-0.94-0.36-1.01-0.91c-0.05-0.38-0.03-0.78,0.02-1.17
	c0.13-1.03,0.46-2,0.84-2.96c0.66-1.67,1.49-3.26,2.36-4.83c0.96-1.74,1.93-3.48,2.87-5.23c0.35-0.64,0.65-1.31,0.77-2.04
	c0.07-0.4-0.04-0.68-0.39-0.86c-0.27-0.13-0.56-0.25-0.85-0.28c-0.7-0.07-1.41-0.1-2.12-0.13c-0.94-0.04-1.88-0.05-2.8-0.31
	c-0.73-0.2-1.36-0.55-1.8-1.19c-0.39-0.57-0.54-1.2-0.59-1.89c-0.07-0.95,0.23-1.77,0.78-2.52c0.56-0.75,1.26-1.34,2.03-1.86
	c0.98-0.66,2.02-1.2,3.1-1.67c1.7-0.75,3.46-1.35,5.23-1.92c0.57-0.19,1.14-0.4,1.71-0.59c0.16-0.05,0.23-0.15,0.24-0.33
	c0.03-0.47,0.07-0.94,0.11-1.41c0.08-1,0.27-1.98,0.63-2.92c0.83-2.16,2.42-3.34,4.71-3.55c0.76-0.07,1.53-0.05,2.29,0.11
	c1.36,0.28,2.47,0.94,3.26,2.09c0.81,1.16,1.13,2.49,1.3,3.86c0.08,0.61,0.11,1.23,0.15,1.85c0.01,0.15,0.08,0.24,0.21,0.29
	c0.29,0.11,0.57,0.22,0.87,0.32c2.14,0.7,4.28,1.38,6.34,2.32c1.5,0.68,2.94,1.46,4.16,2.59c0.69,0.64,1.23,1.38,1.45,2.32
	c0.06,0.24,0.07,0.49,0.1,0.74C523.38,413.33,523.38,413.39,523.38,413.46z"/>
<g>
	<path d="M179.18,763.91v-42.38h15.9c3.24,0,5.83,0.43,7.79,1.29c1.96,0.86,3.49,2.18,4.6,3.96c1.11,1.78,1.66,3.65,1.66,5.59
		c0,1.81-0.49,3.52-1.47,5.12c-0.98,1.6-2.47,2.89-4.45,3.87c2.56,0.75,4.53,2.03,5.91,3.84s2.07,3.95,2.07,6.42
		c0,1.99-0.42,3.83-1.26,5.54c-0.84,1.71-1.87,3.02-3.11,3.95c-1.23,0.92-2.78,1.62-4.64,2.1c-1.86,0.47-4.14,0.71-6.84,0.71H179.18
		z M184.79,739.34h9.17c2.49,0,4.27-0.16,5.35-0.49c1.43-0.42,2.5-1.13,3.22-2.11c0.72-0.98,1.08-2.22,1.08-3.7
		c0-1.41-0.34-2.65-1.01-3.71c-0.67-1.07-1.64-1.8-2.89-2.2c-1.25-0.39-3.4-0.59-6.45-0.59h-8.47V739.34z M184.79,758.91h10.55
		c1.81,0,3.08-0.07,3.82-0.2c1.29-0.23,2.37-0.62,3.24-1.16c0.87-0.54,1.58-1.32,2.14-2.36s0.84-2.22,0.84-3.57
		c0-1.58-0.41-2.95-1.21-4.12c-0.81-1.17-1.93-1.98-3.37-2.46c-1.44-0.47-3.5-0.71-6.2-0.71h-9.8V758.91z"/>
	<path d="M230.86,763.91v-42.38h30.64v5h-25.04v12.98h23.45v4.97h-23.45v14.43h26.02v5H230.86z"/>
	<path d="M282.16,763.91v-42.38h18.79c3.78,0,6.65,0.38,8.62,1.14c1.97,0.76,3.54,2.11,4.71,4.03c1.17,1.93,1.76,4.06,1.76,6.39
		c0,3.01-0.97,5.54-2.92,7.6c-1.95,2.06-4.95,3.37-9.02,3.93c1.48,0.71,2.61,1.42,3.38,2.11c1.64,1.5,3.19,3.38,4.65,5.64
		l7.37,11.54h-7.05l-5.61-8.82c-1.64-2.54-2.99-4.49-4.05-5.84c-1.06-1.35-2.01-2.29-2.85-2.83c-0.84-0.54-1.69-0.92-2.56-1.13
		c-0.64-0.13-1.68-0.2-3.12-0.2h-6.5v18.82H282.16z M287.77,740.23h12.05c2.56,0,4.57-0.26,6.01-0.79c1.45-0.53,2.54-1.38,3.3-2.54
		c0.75-1.17,1.13-2.43,1.13-3.8c0-2-0.73-3.65-2.18-4.94c-1.46-1.29-3.75-1.94-6.89-1.94h-13.41V740.23z"/>
	<path d="M356.5,747.29v-4.97l17.95-0.03v15.73c-2.76,2.2-5.6,3.85-8.53,4.96s-5.94,1.66-9.02,1.66c-4.16,0-7.95-0.89-11.35-2.67
		s-5.97-4.36-7.7-7.73c-1.73-3.37-2.6-7.14-2.6-11.3c0-4.12,0.86-7.97,2.59-11.55s4.21-6.23,7.44-7.96c3.24-1.73,6.97-2.6,11.19-2.6
		c3.06,0,5.83,0.5,8.31,1.49c2.48,0.99,4.42,2.38,5.83,4.15c1.41,1.77,2.48,4.09,3.21,6.94l-5.06,1.39
		c-0.64-2.16-1.43-3.85-2.37-5.09s-2.29-2.22-4.05-2.96c-1.75-0.74-3.7-1.11-5.84-1.11c-2.56,0-4.78,0.39-6.65,1.17
		s-3.38,1.81-4.52,3.08c-1.15,1.27-2.04,2.67-2.67,4.19c-1.08,2.62-1.62,5.46-1.62,8.53c0,3.78,0.65,6.94,1.95,9.48
		c1.3,2.54,3.2,4.43,5.68,5.67c2.49,1.23,5.13,1.85,7.92,1.85c2.43,0,4.8-0.47,7.11-1.4s4.07-1.93,5.26-2.99v-7.89H356.5z"/>
	<path d="M394.68,763.91v-42.38h30.64v5h-25.04v12.98h23.45v4.97h-23.45v14.43h26.02v5H394.68z"/>
	<path d="M445.84,763.91v-42.38h5.75l22.26,33.27v-33.27h5.38v42.38h-5.75l-22.26-33.3v33.3H445.84z"/>
	<path d="M176.77,776.65h7.53c1.49,0,2.6,0.06,3.33,0.19s1.39,0.38,1.97,0.78c0.58,0.39,1.06,0.92,1.45,1.57
		c0.38,0.66,0.58,1.39,0.58,2.2c0,0.88-0.24,1.69-0.71,2.43c-0.48,0.74-1.12,1.29-1.93,1.66c1.15,0.33,2.03,0.9,2.65,1.71
		c0.62,0.8,0.92,1.75,0.92,2.84c0,0.86-0.2,1.69-0.6,2.5s-0.94,1.46-1.63,1.94c-0.69,0.48-1.54,0.78-2.55,0.89
		c-0.63,0.07-2.16,0.11-4.59,0.13h-6.41V776.65z M180.57,779.79v4.36h2.49c1.48,0,2.4-0.02,2.76-0.06c0.65-0.08,1.16-0.3,1.54-0.67
		c0.37-0.37,0.56-0.86,0.56-1.47c0-0.58-0.16-1.06-0.48-1.42s-0.8-0.58-1.43-0.66c-0.38-0.04-1.46-0.06-3.25-0.06H180.57z
		 M180.57,787.28v5.04h3.52c1.37,0,2.24-0.04,2.61-0.12c0.57-0.1,1.03-0.35,1.38-0.75s0.53-0.93,0.53-1.6
		c0-0.57-0.14-1.04-0.41-1.44c-0.27-0.39-0.67-0.68-1.19-0.86s-1.64-0.27-3.37-0.27H180.57z"/>
	<path d="M199.72,795.49v-18.84h8c2.01,0,3.48,0.17,4.39,0.51c0.91,0.34,1.64,0.94,2.19,1.8c0.55,0.87,0.82,1.85,0.82,2.97
		c0,1.41-0.42,2.58-1.25,3.5s-2.07,1.5-3.73,1.74c0.82,0.48,1.5,1.01,2.04,1.58s1.26,1.59,2.17,3.06l2.3,3.67h-4.55l-2.75-4.1
		c-0.98-1.46-1.64-2.39-2-2.77c-0.36-0.38-0.74-0.64-1.14-0.78c-0.4-0.14-1.04-0.21-1.92-0.21h-0.77v7.86H199.72z M203.52,784.62
		h2.81c1.83,0,2.96-0.08,3.42-0.23c0.45-0.15,0.81-0.42,1.07-0.8s0.39-0.85,0.39-1.41c0-0.63-0.17-1.15-0.51-1.54
		c-0.34-0.39-0.82-0.64-1.43-0.74c-0.31-0.04-1.23-0.06-2.78-0.06h-2.97V784.62z"/>
	<path d="M222.66,795.49v-18.84h13.97v3.19h-10.16v4.18h9.46v3.17h-9.46v5.13h10.52v3.17H222.66z"/>
	<path d="M248.39,795.49v-15.65h-5.59v-3.19h14.97v3.19h-5.58v15.65H248.39z"/>
	<path d="M268.41,795.49v-15.65h-5.59v-3.19h14.97v3.19h-5.58v15.65H268.41z"/>
	<path d="M283.23,789.36l3.7-0.36c0.22,1.24,0.67,2.15,1.36,2.74c0.68,0.58,1.6,0.87,2.76,0.87c1.22,0,2.15-0.26,2.77-0.78
		s0.93-1.12,0.93-1.82c0-0.45-0.13-0.82-0.39-1.14c-0.26-0.31-0.72-0.58-1.37-0.82c-0.45-0.15-1.46-0.43-3.05-0.82
		c-2.04-0.5-3.47-1.13-4.29-1.86c-1.16-1.04-1.73-2.3-1.73-3.79c0-0.96,0.27-1.86,0.82-2.69s1.33-1.47,2.35-1.91
		s2.26-0.66,3.71-0.66c2.36,0,4.14,0.52,5.34,1.55c1.19,1.04,1.82,2.42,1.88,4.15l-3.8,0.17c-0.16-0.97-0.51-1.66-1.05-2.09
		s-1.34-0.64-2.41-0.64c-1.1,0-1.97,0.23-2.59,0.68c-0.4,0.29-0.6,0.68-0.6,1.17c0,0.45,0.19,0.83,0.57,1.14
		c0.48,0.4,1.64,0.82,3.5,1.26c1.85,0.44,3.22,0.89,4.1,1.36c0.89,0.47,1.58,1.1,2.08,1.91s0.75,1.81,0.75,3
		c0,1.08-0.3,2.09-0.9,3.03c-0.6,0.94-1.45,1.64-2.54,2.1c-1.1,0.46-2.46,0.69-4.1,0.69c-2.38,0-4.21-0.55-5.49-1.65
		C284.24,793.07,283.48,791.46,283.23,789.36z"/>
	<path d="M305.69,795.49v-18.84h6.1c2.31,0,3.82,0.09,4.52,0.28c1.08,0.28,1.98,0.9,2.71,1.84c0.73,0.95,1.09,2.17,1.09,3.67
		c0,1.16-0.21,2.13-0.63,2.92c-0.42,0.79-0.95,1.41-1.6,1.86c-0.65,0.45-1.3,0.75-1.97,0.89c-0.91,0.18-2.22,0.27-3.94,0.27h-2.48
		v7.11H305.69z M309.5,779.84v5.34h2.08c1.5,0,2.5-0.1,3.01-0.29c0.5-0.2,0.9-0.51,1.19-0.93c0.29-0.42,0.43-0.91,0.43-1.46
		c0-0.68-0.2-1.25-0.6-1.7s-0.91-0.72-1.53-0.83c-0.45-0.09-1.37-0.13-2.74-0.13H309.5z"/>
	<path d="M327.07,795.49v-18.84h3.8v18.84H327.07z"/>
	<path d="M338.55,795.49V776.8h3.8v15.51h9.46v3.17H338.55z"/>
	<path d="M358.57,795.49V776.8h3.8v15.51h9.46v3.17H358.57z"/>
	<path d="M378.54,795.49v-18.84h3.8v8.36l7.68-8.36h5.11l-7.09,7.34l7.48,11.5h-4.92l-5.18-8.84l-3.08,3.15v5.69H378.54z"/>
	<path d="M401.54,795.49V776.8h3.8v15.51h9.46v3.17H401.54z"/>
	<path d="M421.43,776.65h3.8v10.2c0,1.62,0.05,2.67,0.14,3.15c0.16,0.77,0.55,1.39,1.16,1.86s1.45,0.7,2.51,0.7
		c1.08,0,1.89-0.22,2.44-0.66c0.55-0.44,0.88-0.98,0.99-1.63s0.17-1.71,0.17-3.2v-10.42h3.8v9.89c0,2.26-0.1,3.86-0.31,4.79
		c-0.21,0.93-0.58,1.72-1.14,2.36c-0.55,0.64-1.29,1.15-2.22,1.54c-0.93,0.38-2.13,0.57-3.62,0.57c-1.8,0-3.16-0.21-4.09-0.62
		c-0.93-0.42-1.66-0.96-2.2-1.62c-0.54-0.66-0.9-1.36-1.07-2.09c-0.25-1.08-0.37-2.67-0.37-4.78V776.65z"/>
	<path d="M444.42,776.65h7.53c1.49,0,2.6,0.06,3.33,0.19s1.39,0.38,1.97,0.78c0.58,0.39,1.06,0.92,1.45,1.57
		c0.38,0.66,0.58,1.39,0.58,2.2c0,0.88-0.24,1.69-0.71,2.43c-0.48,0.74-1.12,1.29-1.93,1.66c1.15,0.33,2.03,0.9,2.65,1.71
		c0.62,0.8,0.92,1.75,0.92,2.84c0,0.86-0.2,1.69-0.6,2.5s-0.94,1.46-1.63,1.94c-0.69,0.48-1.54,0.78-2.55,0.89
		c-0.63,0.07-2.16,0.11-4.59,0.13h-6.41V776.65z M448.22,779.79v4.36h2.49c1.48,0,2.4-0.02,2.76-0.06c0.65-0.08,1.16-0.3,1.54-0.67
		c0.37-0.37,0.56-0.86,0.56-1.47c0-0.58-0.16-1.06-0.48-1.42s-0.8-0.58-1.43-0.66c-0.38-0.04-1.46-0.06-3.25-0.06H448.22z
		 M448.22,787.28v5.04h3.52c1.37,0,2.24-0.04,2.61-0.12c0.57-0.1,1.03-0.35,1.38-0.75s0.53-0.93,0.53-1.6
		c0-0.57-0.14-1.04-0.41-1.44c-0.27-0.39-0.67-0.68-1.19-0.86s-1.64-0.27-3.37-0.27H448.22z"/>
	<path d="M467.37,776.65h7.53c1.49,0,2.6,0.06,3.33,0.19s1.39,0.38,1.97,0.78c0.58,0.39,1.06,0.92,1.45,1.57
		c0.38,0.66,0.58,1.39,0.58,2.2c0,0.88-0.24,1.69-0.71,2.43c-0.48,0.74-1.12,1.29-1.93,1.66c1.15,0.33,2.03,0.9,2.65,1.71
		c0.62,0.8,0.92,1.75,0.92,2.84c0,0.86-0.2,1.69-0.6,2.5s-0.94,1.46-1.63,1.94c-0.69,0.48-1.54,0.78-2.55,0.89
		c-0.63,0.07-2.16,0.11-4.59,0.13h-6.41V776.65z M471.17,779.79v4.36h2.49c1.48,0,2.4-0.02,2.76-0.06c0.65-0.08,1.16-0.3,1.54-0.67
		c0.37-0.37,0.56-0.86,0.56-1.47c0-0.58-0.16-1.06-0.48-1.42s-0.8-0.58-1.43-0.66c-0.38-0.04-1.46-0.06-3.25-0.06H471.17z
		 M471.17,787.28v5.04h3.52c1.37,0,2.24-0.04,2.61-0.12c0.57-0.1,1.03-0.35,1.38-0.75s0.53-0.93,0.53-1.6
		c0-0.57-0.14-1.04-0.41-1.44c-0.27-0.39-0.67-0.68-1.19-0.86s-1.64-0.27-3.37-0.27H471.17z"/>
</g>
<g>
	<path d="M506.28,265.22c0.87-0.26,1.52-0.69,1.96-1.29c0.44-0.6,0.66-1.35,0.66-2.25c0-0.86-0.21-1.61-0.62-2.26
		c-0.41-0.65-1-1.1-1.76-1.34c-0.76-0.24-2.07-0.36-3.93-0.36h-5.16v7.8h5.58C504.54,265.52,505.62,265.42,506.28,265.22z"/>
	<path d="M475.01,265.22c0.87-0.26,1.52-0.69,1.96-1.29c0.44-0.6,0.66-1.35,0.66-2.25c0-0.86-0.21-1.61-0.62-2.26
		c-0.41-0.65-1-1.1-1.76-1.34c-0.76-0.24-2.07-0.36-3.93-0.36h-5.16v7.8h5.58C473.27,265.52,474.35,265.42,475.01,265.22z"/>
	<path d="M475.92,269c-0.87-0.29-2.13-0.43-3.78-0.43h-5.97v8.88h6.43c1.1,0,1.88-0.04,2.33-0.12c0.79-0.14,1.44-0.38,1.97-0.7
		c0.53-0.33,0.96-0.81,1.3-1.44c0.34-0.63,0.51-1.35,0.51-2.17c0-0.96-0.25-1.8-0.74-2.51C477.48,269.78,476.79,269.29,475.92,269z"
		/>
	<path d="M507.19,269c-0.87-0.29-2.13-0.43-3.78-0.43h-5.97v8.88h6.43c1.1,0,1.88-0.04,2.33-0.12c0.79-0.14,1.44-0.38,1.97-0.7
		c0.53-0.33,0.96-0.81,1.3-1.44c0.34-0.63,0.51-1.35,0.51-2.17c0-0.96-0.25-1.8-0.74-2.51C508.74,269.78,508.06,269.29,507.19,269z"
		/>
	<path d="M502.81,45.51c0,0-84.79,134.31-84.79,181.13c0,46.83,37.96,84.79,84.79,84.79c46.83,0,84.79-37.96,84.79-84.79
		C587.59,179.81,502.81,45.51,502.81,45.51z M481.48,276.38c-0.51,1.04-1.14,1.84-1.89,2.4c-0.75,0.56-1.69,0.99-2.83,1.28
		c-1.13,0.29-2.52,0.43-4.17,0.43h-9.84v-25.82h9.69c1.97,0,3.55,0.26,4.75,0.78c1.19,0.52,2.12,1.33,2.8,2.41s1.01,2.22,1.01,3.41
		c0,1.1-0.3,2.14-0.9,3.12s-1.5,1.76-2.71,2.36c1.56,0.46,2.76,1.24,3.6,2.34c0.84,1.1,1.26,2.41,1.26,3.91
		C482.25,274.21,481.99,275.34,481.48,276.38z M512.75,276.38c-0.51,1.04-1.14,1.84-1.89,2.4c-0.75,0.56-1.69,0.99-2.83,1.28
		c-1.13,0.29-2.52,0.43-4.17,0.43h-9.84v-25.82h9.69c1.97,0,3.55,0.26,4.75,0.78c1.19,0.52,2.12,1.33,2.8,2.41s1.01,2.22,1.01,3.41
		c0,1.1-0.3,2.14-0.9,3.12s-1.5,1.76-2.71,2.36c1.56,0.46,2.76,1.24,3.6,2.34c0.84,1.1,1.26,2.41,1.26,3.91
		C513.52,274.21,513.26,275.34,512.75,276.38z M542.13,280.49l-9.19-13.07l-4.23,4.12v8.95h-3.42v-25.82h3.42v12.8l12.82-12.8h4.63
		l-10.83,10.46l11.31,15.36H542.13z M558.96,182.78c-0.11,0.71-0.19,1.43-0.33,2.13c-0.58,2.94-2.18,5.09-4.95,6.29
		c-2.41,1.05-4.98,1.24-7.56,1.36c-2.39,0.11-4.78,0.17-7.17,0.33c-1.18,0.08-2.35,0.32-3.37,1c-0.64,0.43-1.03,1.01-0.95,1.79
		c0.07,0.72,0.18,1.45,0.41,2.13c1.01,3.06,2.57,5.87,4.12,8.68c2.6,4.73,5.28,9.42,7.85,14.17c2.2,4.06,4.19,8.22,5.65,12.62
		c0.88,2.65,1.6,5.34,1.59,8.16c0,2.08-1.06,3.23-3.15,3.45c-0.67,0.07-1.33,0.15-2,0.22c-8.89,0-17.78,0-26.66,0
		c-0.17-0.04-0.34-0.07-0.52-0.11c-0.65-0.15-1.33-0.22-1.94-0.47c-1.29-0.54-2.2-1.56-2.93-2.71c-1.74-2.75-3.42-5.53-5.14-8.28
		c-1.51-2.41-3.03-4.82-4.61-7.19c-0.64-0.97-1.41-1.86-2.46-2.45c-0.49-0.28-1-0.33-1.44,0.01c-0.63,0.49-1.33,0.96-1.78,1.59
		c-1.56,2.2-3.07,4.44-4.51,6.72c-2.01,3.17-3.93,6.41-5.93,9.59c-0.98,1.55-2.27,2.77-4.16,3.13c-0.4,0.08-0.81,0.12-1.22,0.17
		c-8.85,0-17.7,0-26.55,0c-0.76-0.08-1.52-0.15-2.28-0.23c-1.6-0.16-2.66-1.02-2.86-2.59c-0.14-1.09-0.08-2.22,0.06-3.31
		c0.38-2.91,1.31-5.67,2.38-8.39c1.88-4.74,4.24-9.25,6.7-13.71c2.72-4.94,5.46-9.86,8.13-14.83c0.98-1.82,1.85-3.72,2.2-5.79
		c0.19-1.12-0.1-1.94-1.1-2.44c-0.75-0.38-1.59-0.71-2.41-0.8c-2-0.21-4.01-0.28-6.01-0.38c-2.67-0.12-5.34-0.15-7.94-0.88
		c-2.06-0.58-3.85-1.57-5.09-3.38c-1.11-1.61-1.53-3.42-1.67-5.34c-0.19-2.69,0.64-5.02,2.21-7.14c1.58-2.13,3.58-3.79,5.76-5.26
		c2.77-1.87,5.74-3.4,8.8-4.74c4.83-2.12,9.81-3.83,14.82-5.45c1.63-0.53,3.23-1.12,4.85-1.69c0.44-0.15,0.66-0.44,0.69-0.93
		c0.08-1.33,0.2-2.66,0.3-3.99c0.23-2.83,0.76-5.61,1.78-8.27c2.35-6.12,6.85-9.46,13.35-10.06c2.16-0.2,4.34-0.14,6.49,0.3
		c3.85,0.79,6.99,2.67,9.25,5.92c2.29,3.28,3.2,7.05,3.68,10.94c0.21,1.74,0.31,3.49,0.43,5.24c0.03,0.43,0.24,0.68,0.61,0.82
		c0.82,0.31,1.63,0.63,2.46,0.91c6.06,1.98,12.14,3.92,17.96,6.57c4.25,1.94,8.35,4.13,11.79,7.35c1.95,1.82,3.5,3.92,4.12,6.58
		c0.16,0.68,0.19,1.4,0.28,2.1C558.96,182.42,558.96,182.6,558.96,182.78z"/>
</g>
<g>
	<path d="M332.66,574.14c0.51-0.06,0.92-0.24,1.21-0.53c0.29-0.29,0.44-0.68,0.44-1.16c0-0.46-0.13-0.83-0.38-1.12
		c-0.25-0.29-0.63-0.46-1.13-0.52c-0.3-0.03-1.15-0.05-2.57-0.05h-1.73v3.44h1.97C331.65,574.19,332.38,574.18,332.66,574.14z"/>
	<path d="M333.6,576.88c-0.41-0.14-1.3-0.21-2.66-0.21h-2.43v3.98h2.78c1.08,0,1.77-0.03,2.06-0.09c0.45-0.08,0.81-0.28,1.09-0.59
		c0.28-0.31,0.42-0.74,0.42-1.26c0-0.45-0.11-0.83-0.32-1.14C334.32,577.25,334.01,577.02,333.6,576.88z"/>
	<path d="M131.92,530.58c1.13-0.33,1.97-0.89,2.55-1.67c0.57-0.78,0.86-1.75,0.86-2.92c0-1.11-0.27-2.09-0.8-2.93
		c-0.53-0.84-1.29-1.42-2.28-1.74c-0.99-0.31-2.69-0.47-5.09-0.47h-6.69v10.11h7.24C129.66,530.96,131.06,530.83,131.92,530.58z"/>
	<path d="M222.56,570.89c-0.36-0.07-1.08-0.1-2.16-0.1h-1.45v4.22h1.64c1.18,0,1.98-0.08,2.38-0.23c0.4-0.16,0.71-0.4,0.94-0.73
		c0.23-0.33,0.34-0.72,0.34-1.16c0-0.54-0.16-0.99-0.48-1.34C223.45,571.2,223.05,570.98,222.56,570.89z"/>
	<path d="M122.22,576.88c-0.41-0.14-1.3-0.21-2.66-0.21h-2.43v3.98h2.78c1.08,0,1.77-0.03,2.06-0.09c0.45-0.08,0.81-0.28,1.09-0.59
		c0.28-0.31,0.42-0.74,0.42-1.26c0-0.45-0.11-0.83-0.32-1.14C122.94,577.25,122.62,577.02,122.22,576.88z"/>
	<path d="M350.79,574.14c0.51-0.06,0.92-0.24,1.21-0.53c0.29-0.29,0.44-0.68,0.44-1.16c0-0.46-0.13-0.83-0.38-1.12
		c-0.25-0.29-0.63-0.46-1.13-0.52c-0.3-0.03-1.15-0.05-2.57-0.05h-1.73v3.44h1.97C349.78,574.19,350.5,574.18,350.79,574.14z"/>
	<path d="M218.66,529.03c0.59-0.92,0.89-1.92,0.89-3c0-1.58-0.57-2.88-1.72-3.9c-1.15-1.02-2.96-1.53-5.45-1.53h-10.59v11.07h9.52
		c2.02,0,3.61-0.21,4.75-0.63C217.2,530.62,218.06,529.96,218.66,529.03z"/>
	<path d="M141.02,573.76c0.2-0.3,0.3-0.67,0.3-1.12c0-0.5-0.13-0.9-0.4-1.21c-0.27-0.31-0.64-0.5-1.13-0.58
		c-0.24-0.03-0.97-0.05-2.19-0.05h-2.34v3.77h2.22c1.44,0,2.34-0.06,2.7-0.18C140.53,574.26,140.81,574.05,141.02,573.76z"/>
	<path d="M233.12,32.35c0,0-197.07,312.18-197.07,421.02s88.23,197.07,197.07,197.07s197.07-88.23,197.07-197.07
		S233.12,32.35,233.12,32.35z M126.11,580.81c-0.32,0.64-0.75,1.15-1.29,1.53c-0.54,0.38-1.22,0.62-2.01,0.71
		c-0.5,0.05-1.71,0.09-3.62,0.1h-5.06v-14.88h5.95c1.18,0,2.05,0.05,2.63,0.15c0.58,0.1,1.1,0.3,1.55,0.61
		c0.46,0.31,0.84,0.73,1.14,1.24s0.46,1.1,0.46,1.74c0,0.7-0.19,1.34-0.56,1.92c-0.38,0.58-0.88,1.02-1.53,1.31
		c0.91,0.26,1.6,0.71,2.09,1.35c0.49,0.64,0.73,1.38,0.73,2.24C126.58,579.52,126.43,580.17,126.11,580.81z M116.03,550.37V516.9
		h12.56c2.56,0,4.61,0.34,6.15,1.02c1.54,0.68,2.75,1.72,3.63,3.13c0.88,1.41,1.31,2.88,1.31,4.42c0,1.43-0.39,2.78-1.16,4.04
		c-0.78,1.26-1.95,2.28-3.52,3.06c2.02,0.59,3.58,1.61,4.67,3.04c1.09,1.43,1.63,3.12,1.63,5.07c0,1.57-0.33,3.02-0.99,4.37
		c-0.66,1.35-1.48,2.39-2.45,3.12c-0.97,0.73-2.2,1.28-3.67,1.66s-3.27,0.56-5.4,0.56H116.03z M142.03,583.15l-2.17-3.24
		c-0.77-1.16-1.3-1.89-1.58-2.19s-0.58-0.51-0.9-0.62c-0.32-0.11-0.82-0.17-1.51-0.17h-0.61v6.21h-3v-14.88h6.32
		c1.59,0,2.75,0.13,3.47,0.4c0.72,0.27,1.3,0.74,1.73,1.43c0.43,0.68,0.65,1.46,0.65,2.34c0,1.12-0.33,2.04-0.98,2.76
		c-0.66,0.73-1.64,1.19-2.94,1.38c0.65,0.38,1.19,0.79,1.61,1.25s0.99,1.26,1.71,2.42l1.82,2.9H142.03z M161.68,583.15h-11.31
		v-14.88h11.03v2.52h-8.03v3.3h7.47v2.51h-7.47v4.05h8.31V583.15z M178.1,570.79h-4.4v12.36h-3v-12.36h-4.41v-2.52h11.82V570.79z
		 M181.82,550.37h-24.98V516.9h24.2v3.95h-19.77v10.25h18.52v3.93h-18.52v11.39h20.55V550.37z M193.91,570.79h-4.4v12.36h-3v-12.36
		h-4.41v-2.52h11.82V570.79z M209.59,581.21c-0.47,0.74-1.14,1.3-2.01,1.66c-0.87,0.36-1.95,0.54-3.24,0.54
		c-1.88,0-3.32-0.43-4.33-1.3c-1.01-0.87-1.61-2.14-1.81-3.8l2.92-0.28c0.18,0.98,0.53,1.7,1.07,2.16c0.54,0.46,1.26,0.69,2.18,0.69
		c0.97,0,1.7-0.2,2.19-0.61s0.74-0.89,0.74-1.44c0-0.35-0.1-0.65-0.31-0.9c-0.21-0.25-0.57-0.46-1.08-0.64
		c-0.35-0.12-1.15-0.34-2.41-0.65c-1.61-0.4-2.74-0.89-3.39-1.47c-0.91-0.82-1.37-1.82-1.37-2.99c0-0.76,0.21-1.47,0.64-2.13
		c0.43-0.66,1.05-1.16,1.86-1.51s1.78-0.52,2.93-0.52c1.87,0,3.27,0.41,4.22,1.23c0.94,0.82,1.44,1.91,1.49,3.28l-3,0.13
		c-0.13-0.76-0.4-1.31-0.83-1.65s-1.06-0.5-1.9-0.5c-0.87,0-1.56,0.18-2.05,0.54c-0.32,0.23-0.48,0.54-0.48,0.92
		c0,0.35,0.15,0.65,0.45,0.9c0.38,0.32,1.3,0.65,2.76,0.99c1.46,0.35,2.54,0.7,3.24,1.07c0.7,0.37,1.25,0.87,1.64,1.51
		c0.4,0.64,0.59,1.43,0.59,2.37C210.3,579.67,210.06,580.47,209.59,581.21z M211.41,536.56c-0.66-0.43-1.33-0.72-2.02-0.89
		c-0.5-0.11-1.32-0.16-2.47-0.16h-5.14v14.86h-4.43V516.9h14.84c2.98,0,5.25,0.3,6.8,0.9s2.79,1.66,3.72,3.18
		c0.93,1.52,1.39,3.21,1.39,5.05c0,2.38-0.77,4.38-2.31,6c-1.54,1.63-3.91,2.66-7.12,3.11c1.17,0.56,2.06,1.12,2.67,1.67
		c1.29,1.19,2.52,2.67,3.68,4.45l5.82,9.11h-5.57l-4.43-6.96c-1.29-2.01-2.36-3.55-3.2-4.61S212.07,536.98,211.41,536.56z
		 M226.84,575.16c-0.33,0.62-0.75,1.11-1.26,1.47c-0.51,0.36-1.03,0.59-1.56,0.71c-0.72,0.14-1.75,0.21-3.12,0.21h-1.96v5.61h-3
		v-14.88h4.82c1.83,0,3.02,0.07,3.57,0.22c0.85,0.22,1.57,0.71,2.14,1.46c0.58,0.75,0.86,1.71,0.86,2.9
		C227.34,573.77,227.17,574.53,226.84,575.16z M235.83,583.15h-3v-14.88h3V583.15z M252.37,583.15h-10.47V568.4h3v12.25h7.47V583.15
		z M268.18,583.15h-10.47V568.4h3v12.25h7.47V583.15z M270.25,545.71c-2.18,1.73-4.42,3.04-6.74,3.92s-4.69,1.31-7.12,1.31
		c-3.29,0-6.28-0.7-8.96-2.11s-4.71-3.44-6.08-6.11c-1.37-2.66-2.06-5.64-2.06-8.93c0-3.26,0.68-6.3,2.04-9.12
		c1.36-2.82,3.32-4.92,5.88-6.29c2.56-1.37,5.5-2.05,8.84-2.05c2.42,0,4.61,0.39,6.56,1.18c1.96,0.78,3.49,1.88,4.6,3.28
		c1.11,1.4,1.96,3.23,2.53,5.48l-4,1.1c-0.5-1.7-1.13-3.04-1.87-4.02c-0.75-0.97-1.81-1.75-3.2-2.34s-2.92-0.88-4.61-0.88
		c-2.02,0-3.77,0.31-5.25,0.92s-2.67,1.43-3.57,2.43s-1.61,2.11-2.11,3.31c-0.85,2.07-1.28,4.32-1.28,6.74
		c0,2.98,0.51,5.48,1.54,7.49c1.03,2.01,2.52,3.5,4.49,4.48c1.96,0.97,4.05,1.46,6.26,1.46c1.92,0,3.79-0.37,5.62-1.11
		s3.21-1.53,4.16-2.36v-6.23h-9.84v-3.93l14.18-0.02V545.71z M283.01,583.15l-4.09-6.98l-2.43,2.49v4.5h-3v-14.88h3v6.61l6.07-6.61
		h4.04l-5.6,5.79l5.91,9.08H283.01z M309.17,531.1v3.93h-18.52v11.39h20.55v3.95h-24.98V516.9h24.2v3.95h-19.77v10.25H309.17z
		 M302.11,583.15h-10.47V568.4h3v12.25h7.47V583.15z M319.21,576.09c0,1.79-0.08,3.05-0.24,3.79s-0.46,1.36-0.9,1.87
		c-0.44,0.51-1.02,0.91-1.75,1.21c-0.73,0.3-1.68,0.45-2.86,0.45c-1.42,0-2.5-0.16-3.23-0.49c-0.73-0.33-1.31-0.75-1.74-1.28
		c-0.43-0.52-0.71-1.07-0.84-1.65c-0.2-0.85-0.29-2.11-0.29-3.77v-7.94h3v8.06c0,1.28,0.04,2.11,0.11,2.49
		c0.13,0.61,0.44,1.1,0.92,1.47c0.48,0.37,1.14,0.55,1.98,0.55c0.85,0,1.5-0.17,1.93-0.52c0.43-0.35,0.69-0.78,0.78-1.28
		c0.09-0.51,0.13-1.35,0.13-2.53v-8.23h3V576.09z M337.5,580.81c-0.32,0.64-0.75,1.15-1.29,1.53c-0.54,0.38-1.22,0.62-2.01,0.71
		c-0.5,0.05-1.71,0.09-3.62,0.1h-5.06v-14.88h5.95c1.18,0,2.05,0.05,2.63,0.15c0.58,0.1,1.1,0.3,1.55,0.61
		c0.46,0.31,0.84,0.73,1.14,1.24s0.46,1.1,0.46,1.74c0,0.7-0.19,1.34-0.56,1.92c-0.38,0.58-0.88,1.02-1.53,1.31
		c0.91,0.26,1.6,0.71,2.09,1.35c0.49,0.64,0.73,1.38,0.73,2.24C337.97,579.52,337.81,580.17,337.5,580.81z M326.62,550.37V516.9
		h4.54l17.58,26.28V516.9h4.25v33.47h-4.54l-17.58-26.3v26.3H326.62z M355.62,580.81c-0.32,0.64-0.75,1.15-1.29,1.53
		c-0.54,0.38-1.22,0.62-2.01,0.71c-0.5,0.05-1.71,0.09-3.62,0.1h-5.06v-14.88h5.95c1.18,0,2.05,0.05,2.63,0.15
		c0.58,0.1,1.1,0.3,1.55,0.61c0.46,0.31,0.84,0.73,1.14,1.24s0.46,1.1,0.46,1.74c0,0.7-0.19,1.34-0.56,1.92
		c-0.38,0.58-0.88,1.02-1.53,1.31c0.91,0.26,1.6,0.71,2.09,1.35c0.49,0.64,0.73,1.38,0.73,2.24
		C356.09,579.52,355.94,580.17,355.62,580.81z M364.22,351.55c-0.25,1.65-0.45,3.32-0.77,4.96c-1.35,6.83-5.06,11.83-11.52,14.63
		c-5.6,2.43-11.58,2.87-17.57,3.15c-5.56,0.26-11.12,0.4-16.67,0.76c-2.75,0.18-5.47,0.73-7.84,2.33c-1.48,1-2.39,2.36-2.2,4.15
		c0.17,1.67,0.42,3.37,0.94,4.96c2.36,7.11,5.98,13.64,9.58,20.17c6.05,10.99,12.26,21.9,18.24,32.93
		c5.11,9.44,9.74,19.11,13.13,29.33c2.04,6.17,3.72,12.4,3.71,18.97c-0.01,4.82-2.47,7.51-7.33,8.01c-1.55,0.16-3.1,0.34-4.65,0.51
		c-20.66,0-41.32,0-61.98,0c-0.4-0.09-0.8-0.17-1.2-0.26c-1.51-0.35-3.09-0.52-4.5-1.1c-3-1.25-5.12-3.62-6.81-6.3
		c-4.03-6.38-7.94-12.84-11.96-19.24c-3.52-5.6-7.05-11.2-10.7-16.71c-1.5-2.25-3.28-4.33-5.73-5.71c-1.15-0.65-2.32-0.76-3.35,0.03
		c-1.46,1.14-3.1,2.22-4.14,3.7c-3.62,5.12-7.13,10.33-10.49,15.62c-4.68,7.38-9.13,14.9-13.79,22.29c-2.27,3.6-5.27,6.43-9.68,7.27
		c-0.94,0.18-1.89,0.27-2.84,0.4c-20.57,0-41.15,0-61.72,0c-1.77-0.18-3.53-0.35-5.3-0.53c-3.72-0.38-6.18-2.37-6.64-6.01
		c-0.32-2.53-0.2-5.17,0.14-7.7c0.88-6.76,3.04-13.19,5.54-19.5c4.36-11.02,9.85-21.5,15.57-31.86
		c6.33-11.47,12.69-22.92,18.9-34.46c2.28-4.24,4.3-8.64,5.1-13.47c0.43-2.61-0.23-4.5-2.56-5.67c-1.75-0.88-3.69-1.65-5.61-1.86
		c-4.64-0.49-9.31-0.66-13.98-0.87c-6.19-0.29-12.41-0.34-18.45-2.05c-4.78-1.35-8.94-3.65-11.83-7.86
		c-2.57-3.74-3.56-7.94-3.89-12.42c-0.45-6.25,1.49-11.66,5.14-16.59c3.66-4.95,8.33-8.82,13.38-12.23
		c6.45-4.35,13.34-7.9,20.46-11.02c11.23-4.92,22.8-8.91,34.45-12.67c3.79-1.22,7.52-2.61,11.28-3.92c1.03-0.36,1.54-1.02,1.6-2.17
		c0.18-3.09,0.46-6.18,0.71-9.27c0.53-6.59,1.77-13.04,4.14-19.21c5.47-14.22,15.93-21.99,31.04-23.39
		c5.02-0.46,10.08-0.33,15.07,0.7c8.95,1.83,16.25,6.21,21.51,13.76c5.32,7.64,7.43,16.38,8.54,25.42c0.5,4.04,0.72,8.11,1.01,12.17
		c0.07,1,0.56,1.58,1.41,1.9c1.9,0.72,3.78,1.48,5.71,2.1c14.1,4.6,28.23,9.11,41.75,15.27c9.88,4.5,19.4,9.59,27.4,17.08
		c4.53,4.24,8.13,9.11,9.57,15.28c0.37,1.59,0.44,3.25,0.65,4.88C364.22,350.7,364.22,351.12,364.22,351.55z"/>
	<path d="M121.28,574.14c0.51-0.06,0.92-0.24,1.21-0.53c0.29-0.29,0.44-0.68,0.44-1.16c0-0.46-0.13-0.83-0.38-1.12
		c-0.25-0.29-0.63-0.46-1.13-0.52c-0.3-0.03-1.15-0.05-2.57-0.05h-1.73v3.44h1.97C120.27,574.19,120.99,574.18,121.28,574.14z"/>
	<path d="M136.05,543.49c0.44-0.81,0.66-1.75,0.66-2.82c0-1.25-0.32-2.33-0.96-3.25s-1.53-1.57-2.66-1.94s-2.77-0.56-4.9-0.56h-7.74
		v11.51h8.33c1.43,0,2.44-0.05,3.01-0.16c1.02-0.18,1.87-0.49,2.56-0.91C135.04,544.92,135.61,544.3,136.05,543.49z"/>
	<path d="M351.72,576.88c-0.41-0.14-1.3-0.21-2.66-0.21h-2.43v3.98h2.78c1.08,0,1.77-0.03,2.06-0.09c0.45-0.08,0.81-0.28,1.09-0.59
		c0.28-0.31,0.42-0.74,0.42-1.26c0-0.45-0.11-0.83-0.32-1.14C352.45,577.25,352.13,577.02,351.72,576.88z"/>
</g>
<path d="M115.91,690.78c0,0-41.62,65.93-41.62,88.92c0,22.99,18.63,41.62,41.62,41.62s41.62-18.63,41.62-41.62
	C157.53,756.71,115.91,690.78,115.91,690.78z M143.16,757.18c-0.05,0.35-0.09,0.69-0.16,1.03c-0.28,1.43-1.06,2.47-2.4,3.05
	c-1.17,0.51-2.42,0.6-3.67,0.66c-1.16,0.05-2.32,0.08-3.48,0.16c-0.57,0.04-1.14,0.15-1.64,0.49c-0.31,0.21-0.5,0.49-0.46,0.87
	c0.04,0.35,0.09,0.7,0.2,1.04c0.49,1.48,1.25,2.85,2,4.21c1.26,2.29,2.56,4.57,3.81,6.88c1.07,1.97,2.03,3.99,2.74,6.12
	c0.43,1.29,0.78,2.59,0.77,3.96c0,1.01-0.52,1.57-1.53,1.67c-0.32,0.03-0.65,0.07-0.97,0.11c-4.31,0-8.63,0-12.94,0
	c-0.08-0.02-0.17-0.04-0.25-0.06c-0.31-0.07-0.65-0.11-0.94-0.23c-0.63-0.26-1.07-0.76-1.42-1.32c-0.84-1.33-1.66-2.68-2.5-4.02
	c-0.73-1.17-1.47-2.34-2.23-3.49c-0.31-0.47-0.69-0.9-1.2-1.19c-0.24-0.13-0.48-0.16-0.7,0.01c-0.31,0.24-0.65,0.46-0.86,0.77
	c-0.76,1.07-1.49,2.16-2.19,3.26c-0.98,1.54-1.91,3.11-2.88,4.65c-0.47,0.75-1.1,1.34-2.02,1.52c-0.2,0.04-0.39,0.06-0.59,0.08
	c-4.3,0-8.59,0-12.89,0c-0.37-0.04-0.74-0.07-1.11-0.11c-0.78-0.08-1.29-0.49-1.39-1.26c-0.07-0.53-0.04-1.08,0.03-1.61
	c0.18-1.41,0.64-2.75,1.16-4.07c0.91-2.3,2.06-4.49,3.25-6.65c1.32-2.4,2.65-4.79,3.95-7.2c0.48-0.88,0.9-1.8,1.07-2.81
	c0.09-0.54-0.05-0.94-0.53-1.18c-0.36-0.18-0.77-0.35-1.17-0.39c-0.97-0.1-1.94-0.14-2.92-0.18c-1.29-0.06-2.59-0.07-3.85-0.43
	c-1-0.28-1.87-0.76-2.47-1.64c-0.54-0.78-0.74-1.66-0.81-2.59c-0.09-1.3,0.31-2.43,1.07-3.46c0.76-1.03,1.74-1.84,2.79-2.55
	c1.35-0.91,2.78-1.65,4.27-2.3c2.34-1.03,4.76-1.86,7.19-2.65c0.79-0.25,1.57-0.54,2.35-0.82c0.21-0.07,0.32-0.21,0.33-0.45
	c0.04-0.65,0.1-1.29,0.15-1.93c0.11-1.38,0.37-2.72,0.86-4.01c1.14-2.97,3.33-4.59,6.48-4.88c1.05-0.1,2.1-0.07,3.15,0.15
	c1.87,0.38,3.39,1.3,4.49,2.87c1.11,1.59,1.55,3.42,1.78,5.31c0.1,0.84,0.15,1.69,0.21,2.54c0.01,0.21,0.12,0.33,0.29,0.4
	c0.4,0.15,0.79,0.31,1.19,0.44c2.94,0.96,5.89,1.9,8.72,3.19c2.06,0.94,4.05,2,5.72,3.57c0.94,0.89,1.7,1.9,2,3.19
	c0.08,0.33,0.09,0.68,0.14,1.02C143.16,757,143.16,757.09,143.16,757.18z"/>
</svg>
