<?xml version="1.0" encoding="UTF-8" standalone="no"?>
<!-- Generator: Adobe Illustrator 23.1.1, SVG Export Plug-In . SVG Version: 6.00 Build 0)  -->

<svg
   xmlns:dc="http://purl.org/dc/elements/1.1/"
   xmlns:cc="http://creativecommons.org/ns#"
   xmlns:rdf="http://www.w3.org/1999/02/22-rdf-syntax-ns#"
   xmlns:svg="http://www.w3.org/2000/svg"
   xmlns="http://www.w3.org/2000/svg"
   xmlns:sodipodi="http://sodipodi.sourceforge.net/DTD/sodipodi-0.dtd"
   xmlns:inkscape="http://www.inkscape.org/namespaces/inkscape"
   version="1.1"
   id="Layer_1"
   x="0px"
   y="0px"
   viewBox="0 0 1024 1605.8359"
   xml:space="preserve"
   sodipodi:docname="Stor.svg"
   width="1024"
   height="1605.8359"
   inkscape:version="0.92.4 (5da689c313, 2019-01-14)"><metadata
   id="metadata93"><rdf:RDF><cc:Work
       rdf:about=""><dc:format>image/svg+xml</dc:format><dc:type
         rdf:resource="http://purl.org/dc/dcmitype/StillImage" /><dc:title></dc:title></cc:Work></rdf:RDF></metadata><defs
   id="defs91" /><sodipodi:namedview
   pagecolor="#ffffff"
   bordercolor="#666666"
   borderopacity="1"
   objecttolerance="10"
   gridtolerance="10"
   guidetolerance="10"
   inkscape:pageopacity="0"
   inkscape:pageshadow="2"
   inkscape:window-width="1920"
   inkscape:window-height="1021"
   id="namedview89"
   showgrid="false"
   inkscape:zoom="0.27022694"
   inkscape:cx="281.88763"
   inkscape:cy="720.3909"
   inkscape:window-x="0"
   inkscape:window-y="0"
   inkscape:window-maximized="1"
   inkscape:current-layer="Layer_1" />



<g
   id="g84"
   transform="matrix(2.5980616,0,0,2.5980616,-93.660121,-84.047293)">
	<path
   d="m 332.66,574.14 c 0.51,-0.06 0.92,-0.24 1.21,-0.53 0.29,-0.29 0.44,-0.68 0.44,-1.16 0,-0.46 -0.13,-0.83 -0.38,-1.12 -0.25,-0.29 -0.63,-0.46 -1.13,-0.52 -0.3,-0.03 -1.15,-0.05 -2.57,-0.05 h -1.73 v 3.44 h 1.97 c 1.18,-0.01 1.91,-0.02 2.19,-0.06 z"
   id="path60"
   inkscape:connector-curvature="0" />
	<path
   d="m 333.6,576.88 c -0.41,-0.14 -1.3,-0.21 -2.66,-0.21 h -2.43 v 3.98 h 2.78 c 1.08,0 1.77,-0.03 2.06,-0.09 0.45,-0.08 0.81,-0.28 1.09,-0.59 0.28,-0.31 0.42,-0.74 0.42,-1.26 0,-0.45 -0.11,-0.83 -0.32,-1.14 -0.22,-0.32 -0.53,-0.55 -0.94,-0.69 z"
   id="path62"
   inkscape:connector-curvature="0" />
	<path
   d="m 131.92,530.58 c 1.13,-0.33 1.97,-0.89 2.55,-1.67 0.57,-0.78 0.86,-1.75 0.86,-2.92 0,-1.11 -0.27,-2.09 -0.8,-2.93 -0.53,-0.84 -1.29,-1.42 -2.28,-1.74 -0.99,-0.31 -2.69,-0.47 -5.09,-0.47 h -6.69 v 10.11 h 7.24 c 1.95,0 3.35,-0.13 4.21,-0.38 z"
   id="path64"
   inkscape:connector-curvature="0" />
	<path
   d="m 222.56,570.89 c -0.36,-0.07 -1.08,-0.1 -2.16,-0.1 h -1.45 v 4.22 h 1.64 c 1.18,0 1.98,-0.08 2.38,-0.23 0.4,-0.16 0.71,-0.4 0.94,-0.73 0.23,-0.33 0.34,-0.72 0.34,-1.16 0,-0.54 -0.16,-0.99 -0.48,-1.34 -0.32,-0.35 -0.72,-0.57 -1.21,-0.66 z"
   id="path66"
   inkscape:connector-curvature="0" />
	<path
   d="m 122.22,576.88 c -0.41,-0.14 -1.3,-0.21 -2.66,-0.21 h -2.43 v 3.98 h 2.78 c 1.08,0 1.77,-0.03 2.06,-0.09 0.45,-0.08 0.81,-0.28 1.09,-0.59 0.28,-0.31 0.42,-0.74 0.42,-1.26 0,-0.45 -0.11,-0.83 -0.32,-1.14 -0.22,-0.32 -0.54,-0.55 -0.94,-0.69 z"
   id="path68"
   inkscape:connector-curvature="0" />
	<path
   d="m 350.79,574.14 c 0.51,-0.06 0.92,-0.24 1.21,-0.53 0.29,-0.29 0.44,-0.68 0.44,-1.16 0,-0.46 -0.13,-0.83 -0.38,-1.12 -0.25,-0.29 -0.63,-0.46 -1.13,-0.52 -0.3,-0.03 -1.15,-0.05 -2.57,-0.05 h -1.73 v 3.44 h 1.97 c 1.18,-0.01 1.9,-0.02 2.19,-0.06 z"
   id="path70"
   inkscape:connector-curvature="0" />
	<path
   d="m 218.66,529.03 c 0.59,-0.92 0.89,-1.92 0.89,-3 0,-1.58 -0.57,-2.88 -1.72,-3.9 -1.15,-1.02 -2.96,-1.53 -5.45,-1.53 h -10.59 v 11.07 h 9.52 c 2.02,0 3.61,-0.21 4.75,-0.63 1.14,-0.42 2,-1.08 2.6,-2.01 z"
   id="path72"
   inkscape:connector-curvature="0" />
	<path
   d="m 141.02,573.76 c 0.2,-0.3 0.3,-0.67 0.3,-1.12 0,-0.5 -0.13,-0.9 -0.4,-1.21 -0.27,-0.31 -0.64,-0.5 -1.13,-0.58 -0.24,-0.03 -0.97,-0.05 -2.19,-0.05 h -2.34 v 3.77 h 2.22 c 1.44,0 2.34,-0.06 2.7,-0.18 0.35,-0.13 0.63,-0.34 0.84,-0.63 z"
   id="path74"
   inkscape:connector-curvature="0" />
	<path
   d="m 233.12,32.35 c 0,0 -197.07,312.18 -197.07,421.02 0,108.84 88.23,197.07 197.07,197.07 108.84,0 197.07,-88.23 197.07,-197.07 C 430.19,344.53 233.12,32.35 233.12,32.35 Z M 126.11,580.81 c -0.32,0.64 -0.75,1.15 -1.29,1.53 -0.54,0.38 -1.22,0.62 -2.01,0.71 -0.5,0.05 -1.71,0.09 -3.62,0.1 h -5.06 v -14.88 h 5.95 c 1.18,0 2.05,0.05 2.63,0.15 0.58,0.1 1.1,0.3 1.55,0.61 0.46,0.31 0.84,0.73 1.14,1.24 0.3,0.51 0.46,1.1 0.46,1.74 0,0.7 -0.19,1.34 -0.56,1.92 -0.38,0.58 -0.88,1.02 -1.53,1.31 0.91,0.26 1.6,0.71 2.09,1.35 0.49,0.64 0.73,1.38 0.73,2.24 -0.01,0.69 -0.16,1.34 -0.48,1.98 z M 116.03,550.37 V 516.9 h 12.56 c 2.56,0 4.61,0.34 6.15,1.02 1.54,0.68 2.75,1.72 3.63,3.13 0.88,1.41 1.31,2.88 1.31,4.42 0,1.43 -0.39,2.78 -1.16,4.04 -0.78,1.26 -1.95,2.28 -3.52,3.06 2.02,0.59 3.58,1.61 4.67,3.04 1.09,1.43 1.63,3.12 1.63,5.07 0,1.57 -0.33,3.02 -0.99,4.37 -0.66,1.35 -1.48,2.39 -2.45,3.12 -0.97,0.73 -2.2,1.28 -3.67,1.66 -1.47,0.38 -3.27,0.56 -5.4,0.56 h -12.76 z m 26,32.78 -2.17,-3.24 c -0.77,-1.16 -1.3,-1.89 -1.58,-2.19 -0.28,-0.3 -0.58,-0.51 -0.9,-0.62 -0.32,-0.11 -0.82,-0.17 -1.51,-0.17 h -0.61 v 6.21 h -3 v -14.88 h 6.32 c 1.59,0 2.75,0.13 3.47,0.4 0.72,0.27 1.3,0.74 1.73,1.43 0.43,0.68 0.65,1.46 0.65,2.34 0,1.12 -0.33,2.04 -0.98,2.76 -0.66,0.73 -1.64,1.19 -2.94,1.38 0.65,0.38 1.19,0.79 1.61,1.25 0.42,0.46 0.99,1.26 1.71,2.42 l 1.82,2.9 h -3.62 z m 19.65,0 h -11.31 v -14.88 h 11.03 v 2.52 h -8.03 v 3.3 h 7.47 v 2.51 h -7.47 v 4.05 h 8.31 z m 16.42,-12.36 h -4.4 v 12.36 h -3 v -12.36 h -4.41 v -2.52 h 11.82 v 2.52 z m 3.72,-20.42 H 156.84 V 516.9 h 24.2 v 3.95 h -19.77 v 10.25 h 18.52 v 3.93 h -18.52 v 11.39 h 20.55 z m 12.09,20.42 h -4.4 v 12.36 h -3 v -12.36 h -4.41 v -2.52 h 11.82 v 2.52 z m 15.68,10.42 c -0.47,0.74 -1.14,1.3 -2.01,1.66 -0.87,0.36 -1.95,0.54 -3.24,0.54 -1.88,0 -3.32,-0.43 -4.33,-1.3 -1.01,-0.87 -1.61,-2.14 -1.81,-3.8 l 2.92,-0.28 c 0.18,0.98 0.53,1.7 1.07,2.16 0.54,0.46 1.26,0.69 2.18,0.69 0.97,0 1.7,-0.2 2.19,-0.61 0.49,-0.41 0.74,-0.89 0.74,-1.44 0,-0.35 -0.1,-0.65 -0.31,-0.9 -0.21,-0.25 -0.57,-0.46 -1.08,-0.64 -0.35,-0.12 -1.15,-0.34 -2.41,-0.65 -1.61,-0.4 -2.74,-0.89 -3.39,-1.47 -0.91,-0.82 -1.37,-1.82 -1.37,-2.99 0,-0.76 0.21,-1.47 0.64,-2.13 0.43,-0.66 1.05,-1.16 1.86,-1.51 0.81,-0.35 1.78,-0.52 2.93,-0.52 1.87,0 3.27,0.41 4.22,1.23 0.94,0.82 1.44,1.91 1.49,3.28 l -3,0.13 c -0.13,-0.76 -0.4,-1.31 -0.83,-1.65 -0.43,-0.34 -1.06,-0.5 -1.9,-0.5 -0.87,0 -1.56,0.18 -2.05,0.54 -0.32,0.23 -0.48,0.54 -0.48,0.92 0,0.35 0.15,0.65 0.45,0.9 0.38,0.32 1.3,0.65 2.76,0.99 1.46,0.35 2.54,0.7 3.24,1.07 0.7,0.37 1.25,0.87 1.64,1.51 0.4,0.64 0.59,1.43 0.59,2.37 0,0.86 -0.24,1.66 -0.71,2.4 z m 1.82,-44.65 c -0.66,-0.43 -1.33,-0.72 -2.02,-0.89 -0.5,-0.11 -1.32,-0.16 -2.47,-0.16 h -5.14 v 14.86 h -4.43 V 516.9 h 14.84 c 2.98,0 5.25,0.3 6.8,0.9 1.55,0.6 2.79,1.66 3.72,3.18 0.93,1.52 1.39,3.21 1.39,5.05 0,2.38 -0.77,4.38 -2.31,6 -1.54,1.63 -3.91,2.66 -7.12,3.11 1.17,0.56 2.06,1.12 2.67,1.67 1.29,1.19 2.52,2.67 3.68,4.45 l 5.82,9.11 h -5.57 l -4.43,-6.96 c -1.29,-2.01 -2.36,-3.55 -3.2,-4.61 -0.84,-1.06 -1.57,-1.82 -2.23,-2.24 z m 15.43,38.6 c -0.33,0.62 -0.75,1.11 -1.26,1.47 -0.51,0.36 -1.03,0.59 -1.56,0.71 -0.72,0.14 -1.75,0.21 -3.12,0.21 h -1.96 v 5.61 h -3 v -14.88 h 4.82 c 1.83,0 3.02,0.07 3.57,0.22 0.85,0.22 1.57,0.71 2.14,1.46 0.58,0.75 0.86,1.71 0.86,2.9 0.01,0.91 -0.16,1.67 -0.49,2.3 z m 8.99,7.99 h -3 v -14.88 h 3 z m 16.54,0 H 241.9 V 568.4 h 3 v 12.25 h 7.47 z m 15.81,0 H 257.71 V 568.4 h 3 v 12.25 h 7.47 z m 2.07,-37.44 c -2.18,1.73 -4.42,3.04 -6.74,3.92 -2.32,0.88 -4.69,1.31 -7.12,1.31 -3.29,0 -6.28,-0.7 -8.96,-2.11 -2.68,-1.41 -4.71,-3.44 -6.08,-6.11 -1.37,-2.66 -2.06,-5.64 -2.06,-8.93 0,-3.26 0.68,-6.3 2.04,-9.12 1.36,-2.82 3.32,-4.92 5.88,-6.29 2.56,-1.37 5.5,-2.05 8.84,-2.05 2.42,0 4.61,0.39 6.56,1.18 1.96,0.78 3.49,1.88 4.6,3.28 1.11,1.4 1.96,3.23 2.53,5.48 l -4,1.1 c -0.5,-1.7 -1.13,-3.04 -1.87,-4.02 -0.75,-0.97 -1.81,-1.75 -3.2,-2.34 -1.39,-0.59 -2.92,-0.88 -4.61,-0.88 -2.02,0 -3.77,0.31 -5.25,0.92 -1.48,0.61 -2.67,1.43 -3.57,2.43 -0.9,1 -1.61,2.11 -2.11,3.31 -0.85,2.07 -1.28,4.32 -1.28,6.74 0,2.98 0.51,5.48 1.54,7.49 1.03,2.01 2.52,3.5 4.49,4.48 1.96,0.97 4.05,1.46 6.26,1.46 1.92,0 3.79,-0.37 5.62,-1.11 1.83,-0.74 3.21,-1.53 4.16,-2.36 v -6.23 h -9.84 v -3.93 l 14.18,-0.02 v 12.4 z m 12.76,37.44 -4.09,-6.98 -2.43,2.49 v 4.5 h -3 v -14.88 h 3 v 6.61 l 6.07,-6.61 h 4.04 l -5.6,5.79 5.91,9.08 z m 26.16,-52.05 v 3.93 h -18.52 v 11.39 h 20.55 v 3.95 H 286.22 V 516.9 h 24.2 v 3.95 h -19.77 v 10.25 z m -7.06,52.05 H 291.64 V 568.4 h 3 v 12.25 h 7.47 z m 17.1,-7.06 c 0,1.79 -0.08,3.05 -0.24,3.79 -0.16,0.74 -0.46,1.36 -0.9,1.87 -0.44,0.51 -1.02,0.91 -1.75,1.21 -0.73,0.3 -1.68,0.45 -2.86,0.45 -1.42,0 -2.5,-0.16 -3.23,-0.49 -0.73,-0.33 -1.31,-0.75 -1.74,-1.28 -0.43,-0.52 -0.71,-1.07 -0.84,-1.65 -0.2,-0.85 -0.29,-2.11 -0.29,-3.77 v -7.94 h 3 v 8.06 c 0,1.28 0.04,2.11 0.11,2.49 0.13,0.61 0.44,1.1 0.92,1.47 0.48,0.37 1.14,0.55 1.98,0.55 0.85,0 1.5,-0.17 1.93,-0.52 0.43,-0.35 0.69,-0.78 0.78,-1.28 0.09,-0.51 0.13,-1.35 0.13,-2.53 v -8.23 h 3 z m 18.29,4.72 c -0.32,0.64 -0.75,1.15 -1.29,1.53 -0.54,0.38 -1.22,0.62 -2.01,0.71 -0.5,0.05 -1.71,0.09 -3.62,0.1 h -5.06 v -14.88 h 5.95 c 1.18,0 2.05,0.05 2.63,0.15 0.58,0.1 1.1,0.3 1.55,0.61 0.46,0.31 0.84,0.73 1.14,1.24 0.3,0.51 0.46,1.1 0.46,1.74 0,0.7 -0.19,1.34 -0.56,1.92 -0.38,0.58 -0.88,1.02 -1.53,1.31 0.91,0.26 1.6,0.71 2.09,1.35 0.49,0.64 0.73,1.38 0.73,2.24 -0.01,0.69 -0.17,1.34 -0.48,1.98 z M 326.62,550.37 V 516.9 h 4.54 l 17.58,26.28 V 516.9 h 4.25 v 33.47 h -4.54 l -17.58,-26.3 v 26.3 z m 29,30.44 c -0.32,0.64 -0.75,1.15 -1.29,1.53 -0.54,0.38 -1.22,0.62 -2.01,0.71 -0.5,0.05 -1.71,0.09 -3.62,0.1 h -5.06 v -14.88 h 5.95 c 1.18,0 2.05,0.05 2.63,0.15 0.58,0.1 1.1,0.3 1.55,0.61 0.46,0.31 0.84,0.73 1.14,1.24 0.3,0.51 0.46,1.1 0.46,1.74 0,0.7 -0.19,1.34 -0.56,1.92 -0.38,0.58 -0.88,1.02 -1.53,1.31 0.91,0.26 1.6,0.71 2.09,1.35 0.49,0.64 0.73,1.38 0.73,2.24 -0.01,0.69 -0.16,1.34 -0.48,1.98 z m 8.6,-229.26 c -0.25,1.65 -0.45,3.32 -0.77,4.96 -1.35,6.83 -5.06,11.83 -11.52,14.63 -5.6,2.43 -11.58,2.87 -17.57,3.15 -5.56,0.26 -11.12,0.4 -16.67,0.76 -2.75,0.18 -5.47,0.73 -7.84,2.33 -1.48,1 -2.39,2.36 -2.2,4.15 0.17,1.67 0.42,3.37 0.94,4.96 2.36,7.11 5.98,13.64 9.58,20.17 6.05,10.99 12.26,21.9 18.24,32.93 5.11,9.44 9.74,19.11 13.13,29.33 2.04,6.17 3.72,12.4 3.71,18.97 -0.01,4.82 -2.47,7.51 -7.33,8.01 -1.55,0.16 -3.1,0.34 -4.65,0.51 -20.66,0 -41.32,0 -61.98,0 -0.4,-0.09 -0.8,-0.17 -1.2,-0.26 -1.51,-0.35 -3.09,-0.52 -4.5,-1.1 -3,-1.25 -5.12,-3.62 -6.81,-6.3 -4.03,-6.38 -7.94,-12.84 -11.96,-19.24 -3.52,-5.6 -7.05,-11.2 -10.7,-16.71 -1.5,-2.25 -3.28,-4.33 -5.73,-5.71 -1.15,-0.65 -2.32,-0.76 -3.35,0.03 -1.46,1.14 -3.1,2.22 -4.14,3.7 -3.62,5.12 -7.13,10.33 -10.49,15.62 -4.68,7.38 -9.13,14.9 -13.79,22.29 -2.27,3.6 -5.27,6.43 -9.68,7.27 -0.94,0.18 -1.89,0.27 -2.84,0.4 -20.57,0 -41.15,0 -61.72,0 -1.77,-0.18 -3.53,-0.35 -5.3,-0.53 -3.72,-0.38 -6.18,-2.37 -6.64,-6.01 -0.32,-2.53 -0.2,-5.17 0.14,-7.7 0.88,-6.76 3.04,-13.19 5.54,-19.5 4.36,-11.02 9.85,-21.5 15.57,-31.86 6.33,-11.47 12.69,-22.92 18.9,-34.46 2.28,-4.24 4.3,-8.64 5.1,-13.47 0.43,-2.61 -0.23,-4.5 -2.56,-5.67 -1.75,-0.88 -3.69,-1.65 -5.61,-1.86 -4.64,-0.49 -9.31,-0.66 -13.98,-0.87 -6.19,-0.29 -12.41,-0.34 -18.45,-2.05 -4.78,-1.35 -8.94,-3.65 -11.83,-7.86 -2.57,-3.74 -3.56,-7.94 -3.89,-12.42 -0.45,-6.25 1.49,-11.66 5.14,-16.59 3.66,-4.95 8.33,-8.82 13.38,-12.23 6.45,-4.35 13.34,-7.9 20.46,-11.02 11.23,-4.92 22.8,-8.91 34.45,-12.67 3.79,-1.22 7.52,-2.61 11.28,-3.92 1.03,-0.36 1.54,-1.02 1.6,-2.17 0.18,-3.09 0.46,-6.18 0.71,-9.27 0.53,-6.59 1.77,-13.04 4.14,-19.21 5.47,-14.22 15.93,-21.99 31.04,-23.39 5.02,-0.46 10.08,-0.33 15.07,0.7 8.95,1.83 16.25,6.21 21.51,13.76 5.32,7.64 7.43,16.38 8.54,25.42 0.5,4.04 0.72,8.11 1.01,12.17 0.07,1 0.56,1.58 1.41,1.9 1.9,0.72 3.78,1.48 5.71,2.1 14.1,4.6 28.23,9.11 41.75,15.27 9.88,4.5 19.4,9.59 27.4,17.08 4.53,4.24 8.13,9.11 9.57,15.28 0.37,1.59 0.44,3.25 0.65,4.88 0.03,0.47 0.03,0.89 0.03,1.32 z"
   id="path76"
   inkscape:connector-curvature="0" />
	<path
   d="m 121.28,574.14 c 0.51,-0.06 0.92,-0.24 1.21,-0.53 0.29,-0.29 0.44,-0.68 0.44,-1.16 0,-0.46 -0.13,-0.83 -0.38,-1.12 -0.25,-0.29 -0.63,-0.46 -1.13,-0.52 -0.3,-0.03 -1.15,-0.05 -2.57,-0.05 h -1.73 v 3.44 h 1.97 c 1.18,-0.01 1.9,-0.02 2.19,-0.06 z"
   id="path78"
   inkscape:connector-curvature="0" />
	<path
   d="m 136.05,543.49 c 0.44,-0.81 0.66,-1.75 0.66,-2.82 0,-1.25 -0.32,-2.33 -0.96,-3.25 -0.64,-0.92 -1.53,-1.57 -2.66,-1.94 -1.13,-0.37 -2.77,-0.56 -4.9,-0.56 h -7.74 v 11.51 h 8.33 c 1.43,0 2.44,-0.05 3.01,-0.16 1.02,-0.18 1.87,-0.49 2.56,-0.91 0.69,-0.44 1.26,-1.06 1.7,-1.87 z"
   id="path80"
   inkscape:connector-curvature="0" />
	<path
   d="m 351.72,576.88 c -0.41,-0.14 -1.3,-0.21 -2.66,-0.21 h -2.43 v 3.98 h 2.78 c 1.08,0 1.77,-0.03 2.06,-0.09 0.45,-0.08 0.81,-0.28 1.09,-0.59 0.28,-0.31 0.42,-0.74 0.42,-1.26 0,-0.45 -0.11,-0.83 -0.32,-1.14 -0.21,-0.32 -0.53,-0.55 -0.94,-0.69 z"
   id="path82"
   inkscape:connector-curvature="0" />
</g>

</svg>